<svg xmlns="http://www.w3.org/2000/svg" width="43.87" height="58.096" viewBox="0 0 43.87 58.096">
  <g id="g145" transform="translate(217.168 8.383)">
    <path id="path1509-2" d="M-208.745,6.226v6.459c-.013.566.008,1.131.046,1.7.047.519.137,1.033.186,1.552.06.716.1,1.434.163,2.15.044.514.114,1.026.188,1.537.04.275.093.547.106.825,0,.979-.092,1.956-.164,2.932-.051.916-.131,1.83-.193,2.745-.017.513-.068,1.023-.1,1.534-.039.476-.019.956-.049,1.432-.032.4-.092.789-.153,1.181a10.85,10.85,0,0,0-.116,1.442c-.009.333-.008.666-.008,1,0,.5,0,.99.032,1.485a5.147,5.147,0,0,0,.168.949,2.07,2.07,0,0,0,.806,1.142,2.8,2.8,0,0,0,1.332.532c.138.017.277.021.415.031a8.612,8.612,0,0,0,2.085-.3,8.532,8.532,0,0,1,1.046-.246,4.573,4.573,0,0,1,.756-.06c.258-.005.516-.005.775,0h1.178a17.635,17.635,0,0,1,3.142.247c.728.11,1.446.27,2.177.356.634.06,1.272.059,1.908.061l1.759,0c.671-.02,1.341-.057,2.011-.079a16.149,16.149,0,0,1,1.716.018c.763.066,1.527.109,2.292.136A6.444,6.444,0,0,0-183,36.53c.317-.111.638-.209.95-.333a1.225,1.225,0,0,0,.289-.152,3.681,3.681,0,0,0,.594-.682,2.97,2.97,0,0,0,.189-1.508,11.924,11.924,0,0,0-.3-1.653c-.085-.435-.2-.865-.3-1.3s-.226-.88-.3-1.328c-.079-.524-.092-1.054-.138-1.582a6.551,6.551,0,0,1,.054-1.572q.037-.386.073-.772.192-1.943.257-3.894c.016-.816.039-1.633.012-2.45-.018-.454-.076-.907-.063-1.362.032-1.379.048-2.757.061-4.136q.011-1.231.012-2.461,0-.824,0-1.648a7.461,7.461,0,0,0-.12-1.46,6.237,6.237,0,0,0-.3-1.114,2.1,2.1,0,0,0-.81-.992c-.212-.152-.467-.264-.691-.4-.434-.235-.832-.529-1.243-.8a4.156,4.156,0,0,0-.578-.355c-.1-.042-.212-.076-.318-.114a4.476,4.476,0,0,0-1.125-.084l-1.412,0a11.51,11.51,0,0,0-1.772.1c-.45.051-.9.123-1.347.182-.826.081-1.657.083-2.485.093a23.439,23.439,0,0,0-3.392.213,11.208,11.208,0,0,1-2.124.212c-.2,0-.409-.013-.613-.02-1.343-.066-2.678-.234-4.011-.4-.6-.073-1.193-.143-1.792-.181-.216-.014-.433-.012-.649-.011a3.041,3.041,0,0,0-.707.031c-.271.1-.522.246-.782.369a7.32,7.32,0,0,0-.533,1.388,1.1,1.1,0,0,0,.2.637,3.153,3.153,0,0,0,1.046,1.056c.177.108.366.194.55.29a11.494,11.494,0,0,0,3.339.6,21.585,21.585,0,0,1,3.543.6c1.141.284,2.26.646,3.38,1,.728.233,1.46.452,2.207.618a12.085,12.085,0,0,0,2.186.21,5.484,5.484,0,0,0,2.479-.561c.361-.155.692-.368,1.038-.552.1-.042.147-.065.248-.1.013-.005-.051.019-.037.019a.466.466,0,0,0,.088-.021,5.573,5.573,0,0,1,1.065-.171c.215-.016.432-.023.648-.025.018-3.348.77-2.8-1-3.25a26.281,26.281,0,0,0-3.366-.6c-.986-.126-1.97-.258-2.96-.343-.524-.065-1.049-.111-1.576-.133a12.69,12.69,0,0,0-2.487.292c-.905.159-1.8.356-2.71.5-.677.12-1.363.181-2.047.243-.67.047-1.337.132-2,.229a4.906,4.906,0,0,0-1.826.62,2.064,2.064,0,0,0-1.054,1.662,3.854,3.854,0,0,0,.143.743,4.9,4.9,0,0,0,.5.686,2.957,2.957,0,0,0,1.263.605,11.915,11.915,0,0,0,2.118.27c1.379.087,2.761.06,4.141.126a14.973,14.973,0,0,1,2.7.436,16.373,16.373,0,0,0,3,.5,17.04,17.04,0,0,0,3.484-.25c.7-.1,1.38-.266,2.072-.384.3-.036.6-.106.9-.148a2.311,2.311,0,0,0,1.189-.59,3.8,3.8,0,0,1,.526-.467,4.464,4.464,0,0,0,.73-.6,1.774,1.774,0,0,0,.377-.736c.014-.056.054-.224.032-.17-.338.807-.264.672-.156.486.007-.012.031-.042.02-.035-1.7,1.051-.865,1.117-2.766-.36-.032-.025,0-.084-.025-.118s0,.055,0,.082l0,.15c.006.425,0,.85.019,1.275a6.393,6.393,0,0,0,.335,1.556c-.07-.3.065.21.053.157a.881.881,0,0,1-.054-.225,1.376,1.376,0,0,1,.633-1.353c.191-.085,0-.037-.05-.036l-.036-.006s0-.01-.006-.011c-.044-.009-.089-.012-.133-.018a9.63,9.63,0,0,0-1.356-.188,14.262,14.262,0,0,0-1.81.05c-.676.057-1.353.081-2.03.125a17.784,17.784,0,0,0-2.036.284c-.638.125-1.275.259-1.918.348a17.459,17.459,0,0,1-1.835.1,3.907,3.907,0,0,1-1.15-.094c-.433-.1-.863-.216-1.291-.336-.582-.152-1.169-.285-1.761-.392A9.8,9.8,0,0,0-203,10.456c-.338-.021-.678-.023-1.016-.023a5.965,5.965,0,0,0-.837.035,1.935,1.935,0,0,0-1.3.913,2.913,2.913,0,0,0-.4.832c-.027.1-.042.206-.062.309a3.8,3.8,0,0,0,.1,1.583c.044.149.1.292.157.439a3.206,3.206,0,0,0,1.239,1.472,3.71,3.71,0,0,0,.938.4,10.724,10.724,0,0,0,2.843.247c.8-.023,1.6-.086,2.392-.161.5-.056.992-.094,1.488-.139.789-.077,1.581-.109,2.372-.149,1.16-.061,2.32-.132,3.481-.172a29.33,29.33,0,0,0,3.017-.266c.878-.079,1.754-.189,2.626-.321.581-.116,1.167-.209,1.749-.319.141-.005.308-.085.444-.076,1.041-.019.1-1.317-.049-3.024-.005-.057-.115,0-.172,0-.414,0-.17,0-.647-.01-.154-.012-.307-.021-.461-.035-.857-.075-1.71-.177-2.567-.243-.68-.052-1.646-.11-2.323-.151-2.061-.114-4.12-.25-6.182-.342-1.1-.028-2.2-.082-3.3-.125-.531.005-1.069-.07-1.6-.023-.138.012-.275.037-.413.055a5.694,5.694,0,0,0-1.473.506,4.627,4.627,0,0,0-1.029.676c-.191.17-.371.351-.564.519-.23.165-.46.331-.684.5a2.88,2.88,0,0,0-.7.731,2.928,2.928,0,0,0-.306,1.122,8.392,8.392,0,0,0-.043.912q0,.49,0,.98a4.938,4.938,0,0,0,.175,1.174A1.937,1.937,0,0,0-205,19.541a2.971,2.971,0,0,0,.4.1,3.921,3.921,0,0,0,1.675-.157c.555-.154,1.113-.3,1.678-.417a9.366,9.366,0,0,1,1.092-.213c.21-.02.422-.014.633-.014a19.544,19.544,0,0,0,3.02-.289c1.282-.165,2.558-.366,3.832-.581.982-.186,1.971-.33,2.954-.509.761-.147,1.522-.3,2.294-.368.476-.041.954-.047,1.432-.049h.134a1.515,1.515,0,1,0,0-3.024h-.149c-.57,0-1.14.013-1.708.064-.856.085-1.7.236-2.544.4-.97.178-1.947.317-2.916.5-1.248.211-2.5.408-3.754.569a16.958,16.958,0,0,1-2.595.259,8.59,8.59,0,0,0-.979.034,11.292,11.292,0,0,0-1.366.258c-.618.131-1.23.285-1.838.455a3.088,3.088,0,0,1-.3.082c-.027,0-.058-.007-.081.007-.142.092.1-.01.044.015a1.219,1.219,0,0,1,.851.815,1.75,1.75,0,0,1-.066-.371c0-.315,0-.63,0-.945,0-.2,0-.393.022-.588.006-.058.064-.378.061-.384-.1-.161.074,1.229-.207.531a.662.662,0,0,1-.1.122.43.43,0,0,1-.05.04c.017-.016.157-.127.166-.135.275-.216.568-.406.835-.631.174-.156.345-.314.514-.476a1.454,1.454,0,0,1,.336-.232,3.132,3.132,0,0,1,.684-.265,1.274,1.274,0,0,1,.457-.023q.479.009.958.027c1.095.042,2.189.1,3.284.124,2.045.092,4.088.227,6.131.34.624.039,1.616.1,2.249.146.872.067,1.74.174,2.611.246.2.017.4.028.6.041.543.014.3.012.726.011.042,0,.125.042.127,0,.119-3,.983-3.081-.143-3.014a7.142,7.142,0,0,0-.766.119c-.547.1-1.1.189-1.643.3q-1.245.19-2.5.3a27.067,27.067,0,0,1-2.791.25c-1.176.041-2.351.111-3.527.174-.833.041-1.666.077-2.5.157-.5.046-1,.083-1.5.14-.712.069-1.426.123-2.141.148a10.114,10.114,0,0,1-1.88-.1c-.035-.006-.071-.011-.106-.019s-.058-.038-.083-.024.017.038.02.058,0,.029-.008.023c-.045-.04-.065-.1-.111-.142a.643.643,0,0,1-.086-.429,1.052,1.052,0,0,1-.065.159c0,.008-.018.029-.014.021a1.313,1.313,0,0,1,.1-.176,1.247,1.247,0,0,1-.729.437c-.063,0-.126.005-.188.011a.69.69,0,0,0,.073,0h.431c.267,0,.534,0,.8.015a7.134,7.134,0,0,1,1.056.154c.5.088.99.2,1.48.328.5.141,1.008.276,1.519.391a6.947,6.947,0,0,0,1.793.152,19.915,19.915,0,0,0,2.207-.133c.684-.1,1.362-.231,2.039-.368a14.823,14.823,0,0,1,1.686-.241c.686-.045,1.373-.069,2.059-.127a12.7,12.7,0,0,1,1.357-.05,9.693,9.693,0,0,1,1.209.173,3.621,3.621,0,0,0,1.921-.21,2.186,2.186,0,0,0,.41-.245,2.045,2.045,0,0,0,.5-.616,1.749,1.749,0,0,0,.012-1.388,3.6,3.6,0,0,1-.186-.763c-.026-.394,0-.791-.015-1.186a3.491,3.491,0,0,0-.056-.724c-.822-.77-1.876-2.113-2.824-.432-.071.195-.136.392-.213.584-.015.037.013-.078.024-.116a1.329,1.329,0,0,1,.287-.538c.271-.263-.147.137.178-.151.023-.021-.051.036-.076.054q-.187.133-.372.269a5.978,5.978,0,0,0-.7.6l.009-.007.077-.064c-.01.008-.162.13-.161.131.02.032.061-.044.095-.062a.863.863,0,0,1,.34-.117c-.329.049-.654.118-.983.161-.678.117-1.348.278-2.03.377a14.443,14.443,0,0,1-2.785.222,13.588,13.588,0,0,1-2.571-.438,17.843,17.843,0,0,0-3.22-.506c-1.353-.064-2.708-.044-4.061-.122-.538-.039-.625-.037-1.133-.1-.119-.015-.236-.038-.355-.053-.042-.006-.12-.052-.126-.01-.033.213.779.19.336.551a2.521,2.521,0,0,1,.048.491c-.022.22-.159.671-.418.772a1.708,1.708,0,0,1,.72-.226c.608-.091,1.219-.166,1.832-.209.758-.069,1.517-.139,2.267-.271.924-.153,1.84-.349,2.762-.513a11.4,11.4,0,0,1,1.819-.245c.482.019.962.067,1.441.124.948.081,1.89.21,2.834.33a23.244,23.244,0,0,1,3,.534,10.958,10.958,0,0,0,1.41.3c.087.01.253.1.262.016.1-1,.033-2.016.05-3.025-.295,0-.589.013-.883.036a8.652,8.652,0,0,0-1.537.249,4.4,4.4,0,0,0-.985.366c-.291.155-.57.332-.87.469a2.394,2.394,0,0,1-1.142.292,9.513,9.513,0,0,1-1.618-.139c-.659-.145-1.3-.345-1.947-.548-1.191-.378-2.381-.761-3.6-1.061a24.634,24.634,0,0,0-3.931-.662,13.757,13.757,0,0,1-2.342-.321c-.129-.023-.072,0-.209-.1-.03-.021-.092-.1-.087-.065.012.079.085.137.109.213.237.734-.011.632-.458,1.632-1.123.475-.363.25-.838.3a.765.765,0,0,0,.094,0h.319c.148,0,.3,0,.445.005.539.033,1.075.1,1.61.164,1.428.177,2.858.355,4.3.42.259.007.518.02.776.02a13.664,13.664,0,0,0,2.472-.241,20.417,20.417,0,0,1,3-.183c.951-.011,1.9-.015,2.851-.12.445-.06.889-.13,1.335-.181a8.565,8.565,0,0,1,1.386-.072l1.409,0c.019,0,.656.028.307-.029a.926.926,0,0,1-.268-.134c-.015-.013.033.023.049.034a2.972,2.972,0,0,0,.267.182c.453.3.888.622,1.366.879.1.056.19.114.286.169.071.041.143.081.216.119.008,0,.033.014.027.007-.12-.142-.284-.258-.321-.457a3.086,3.086,0,0,1,.156.606,4.389,4.389,0,0,1,.071.92q0,.822,0,1.643,0,1.218-.012,2.437c-.013,1.372-.029,2.744-.061,4.116-.005.508.028,1.014.064,1.52.03.745,0,1.492-.012,2.237q-.063,1.86-.245,3.712a13.8,13.8,0,0,0-.129,2.891c.054.62.066,1.244.175,1.858.094.507.21,1.008.342,1.506.1.414.209.827.291,1.246.085.375.173.751.229,1.132,0,.059.005.118.01.177.015.208.065-.108.124-.182.394-.493.336-.441.687-.606-.272.111-.557.185-.831.288a3.794,3.794,0,0,1-1.121.273q-1.1-.039-2.2-.132a19.46,19.46,0,0,0-2.014-.023c-.638.021-1.275.054-1.913.077l-1.745,0c-.526,0-1.053,0-1.577-.042-.7-.075-1.383-.253-2.08-.343a20.692,20.692,0,0,0-3.581-.28h-1.173c-.287,0-.574,0-.861.005a7.391,7.391,0,0,0-1.262.117,10.126,10.126,0,0,0-1.161.271,8.037,8.037,0,0,1-1.232.225c-.021,0-.042.007-.062.007s-.069-.027-.065-.005c0,0,.223.143.015.014a1.077,1.077,0,0,1,.348.586,2.376,2.376,0,0,1-.092-.466c-.033-.419-.023-.838-.024-1.257,0-.3,0-.607.006-.91a7.891,7.891,0,0,1,.081-1.061c.077-.491.15-.985.185-1.481.023-.464.018-.93.047-1.394.035-.511.086-1.021.1-1.534.062-.91.142-1.818.192-2.728a33.442,33.442,0,0,0,.164-3.371c-.067-.8-.235-1.594-.3-2.4-.061-.729-.1-1.459-.166-2.187-.048-.491-.123-.978-.179-1.468-.034-.5-.053-.992-.039-1.49V6.225a1.515,1.515,0,1,0-3.024,0Z" fill="#fff" stroke="rgba(0,0,0,0)" stroke-width="1.4"/>
    <path id="path1511-1" d="M-186.892,15.9c.079.6.11,1.206.143,1.81,0,.073.007.146.01.219.016.344-.018.1.029-.078a1.046,1.046,0,0,1,.121-.3,3.115,3.115,0,0,1,.286-.329c.2-.128.19-.1.066-.1a2.521,2.521,0,0,1-.285-.023c-.362-.091-.718-.2-1.083-.28a9.314,9.314,0,0,0-1.922-.13,23.132,23.132,0,0,0-2.314.233,19.437,19.437,0,0,0-2.448.483c-.941.256-1.868.554-2.823.757-1.223.246-2.462.394-3.693.6-1.109.194-2.208.446-3.32.622a13.629,13.629,0,0,1-1.41.134c-.02,0-.061-.017-.059,0,.094,1,.187,2.006.34,3,.006.04.08-.008.12-.011.083,0,.167-.008.25-.012.39-.016.413-.015.83-.026,1.327-.026,2.655-.025,3.982-.028q2.076,0,4.151,0c1.037-.006,2.073-.07,3.107-.15.752-.072,1.507-.1,2.262-.122.71-.013,1.42-.013,2.13-.013h3.267c1.488,0,.56.18.431-3.024a21,21,0,0,0-2.3.229c-1.113.173-2.221.379-3.335.552a30.872,30.872,0,0,1-3.182.315c-.806.034-1.612.04-2.418.041a12.532,12.532,0,0,0-2.1.22c-.83.143-1.669.216-2.506.3-.761.062-1.521.139-2.283.192-.511.024-1.019.078-1.529.116-1.3.082-1.433.513-1.387,2.632.006.279.477.29.715.435.2.042.394.094.594.126.252.04,1.288.14,1.514.158,1.162.091,2.327.132,3.491.173,1.891.057,3.783.08,5.675.09q1.063,0,2.126,0c.554-.014,1.1-.079,1.656-.127.714-.028,1.425-.1,2.134-.183.707-.072,1.412-.153,2.12-.212a6.336,6.336,0,0,0,1.294-.2,1.834,1.834,0,0,0,1.066-.749,2.166,2.166,0,0,0,.122-.233,5.426,5.426,0,0,0,.269-1.312,3.425,3.425,0,0,0-.022-1.112c-.024-.109-.062-.214-.093-.321-.115-.327-.464-1.095-.81-1.168a8.738,8.738,0,0,0-1.652-.031c-.171.148-.353.283-.512.443a1.693,1.693,0,0,0-.218.291,5.293,5.293,0,0,0-.647,1.862,13.309,13.309,0,0,0-.165,2.128c-.013.508.04,1.015.072,1.522.064.74-.125,1.039.376-.4.212-.139.412-.3.636-.417a1.029,1.029,0,0,1,.247-.05c.005,0,.014-.01.009-.011-.293-.058-.6-.076-.9-.105-.624-.057-1.251-.075-1.878-.085-.6-.044-1.2-.067-1.8-.081-.925-.013-1.85-.025-2.775,0-.951.033-1.9.059-2.854.073-.864.01-1.728.011-2.593.011h-2.182a5.126,5.126,0,0,1-1.019-.113c-.236-.056-.473-.114-.7-.191-.327-.107-.653-.217-.985-.308a4.7,4.7,0,0,0-.809-.139,2.452,2.452,0,0,0-.874.085,2.026,2.026,0,0,0-1.315,1.672,4.242,4.242,0,0,0-.089,1.3c.018.132.06.259.09.388a4.659,4.659,0,0,0,.2.432,2.758,2.758,0,0,0,1.693,1.165c.725.191,1.45.384,2.188.521a23.978,23.978,0,0,0,3.394.19c1.413.01,2.826.007,4.239.006l3.485,0a10.372,10.372,0,0,1,1.982.111,5.167,5.167,0,0,1,1.073.3c.236.1.477.194.718.284a4.214,4.214,0,0,0,1.176.236c.214.014.429.018.644.017.112-.012.347.038-.13-.019a.82.82,0,0,1-.2-.056c-.35-.233-.546-.291-.725-.7a2.822,2.822,0,0,1-.134-.576c-.005-.027.022-.1,0-.081s-.009.145-.012.064a5.839,5.839,0,0,0-.134.715,7.926,7.926,0,0,0,.208,1.835c.081.369.172.736.243,1.107.007.113,0,.229,0,.343.032.01-.058.334-.04.194.009-.065.051-.128.043-.193,0-.023-.04.026-.063.03a.376.376,0,0,1-.082,0c-.089.032-.175.073-.267.1-.132.034-.267.054-.4.077a14.95,14.95,0,0,1-2.173.2c-.292.006-.583,0-.875,0-1.5-.025-2.992-.22-4.482-.386L-197.8,32.5c-.645-.077-1.287-.169-1.93-.264-.59-.076-1.183-.134-1.776-.187-.531-.046-1.065-.057-1.6-.063q-.661,0-1.323,0a6.145,6.145,0,0,0-1.016.069l-.159.015c-.021,0-.085,0-.064,0a1.31,1.31,0,0,1,.662.144,1.223,1.223,0,0,1,.658,1.075,2.139,2.139,0,0,1-.034.213c-.005.027-.011.054-.016.08.015-.007.042-.037.046-.021s-.061.076-.032.086c.053.02.109-.027.164-.037.28-.053.436-.068.736-.106a16.759,16.759,0,0,1,3.542.336,26.53,26.53,0,0,0,2.925.248c.543.006.953-.02,1.491-.044,1.344-.106,2.679-.294,4.017-.454,1.032-.108,2.058-.263,3.079-.45.658-.142,1.326-.222,1.991-.322.334-.052,1.043-.092,1.253-.336a8.168,8.168,0,0,0,.717-1.2,6.677,6.677,0,0,0-.467-1.257,1.7,1.7,0,0,0-.589-.434,7.25,7.25,0,0,0-2.763-.777,23.922,23.922,0,0,0-3.316-.179c-.45.009-1.023.043-1.474.067-1.122.092-2.245.176-3.37.221-.645.023-1.291.03-1.937.032-.592.016-1.181.078-1.771.123-.731.045-1.463.054-2.2.061-.429,0-.858,0-1.287,0-.328-.089.234.067-.167-.056-.1-.043-.239-.1-.357-.167a2.972,2.972,0,0,1-.371-.2l.052.029a1.2,1.2,0,0,1,.434.715,1.88,1.88,0,0,1-.117.916c.018-.01.034-.034.055-.031s-.028.02-.037.034.058.008.09.006l.117-.006a11.905,11.905,0,0,1,1.924.284,23.348,23.348,0,0,0,3.974.332c1.444.006,2.888-.054,4.332-.022a17.213,17.213,0,0,1,3.962.687,11.809,11.809,0,0,1,1.917.711c.088.124-.115-.066-.121-.071a1.987,1.987,0,0,1,.079.43c.039.45-.084.146.095-.309a3.048,3.048,0,0,1,.32-.5c.028-.027.08-.043.085-.082s-.052.017-.078.026c-.048.016-.094.035-.143.048a4.206,4.206,0,0,1-.623.094,3.064,3.064,0,0,1-1.48-.329,4.331,4.331,0,0,1-.958-.662.969.969,0,0,0-.082-.074,1.2,1.2,0,0,1,.115.108,1.359,1.359,0,0,1,.2,1.419c-.15.512-.464.611-.84.8a.482.482,0,0,0-.081.026,1.515,1.515,0,1,0-.271-3.012h0a2.6,2.6,0,0,0-.474.076c-.485.21-.9.3-1.115.92a1.737,1.737,0,0,0,.586,2.038,7.157,7.157,0,0,0,1.781,1.161,8.665,8.665,0,0,0,.847.314,5.57,5.57,0,0,0,2.129.216,4.811,4.811,0,0,0,2.391-.812,4.133,4.133,0,0,0,.5-.652,2.151,2.151,0,0,0,.107-1.119,4.907,4.907,0,0,0-.282-1.256,2.846,2.846,0,0,0-1.323-1.5,15.1,15.1,0,0,0-2.484-.929,20.213,20.213,0,0,0-4.693-.792c-1.452-.029-2.9.022-4.355.021a20.46,20.46,0,0,1-3.425-.274,12.009,12.009,0,0,0-2.746-.333,3.37,3.37,0,0,0-1.78.574,2.886,2.886,0,0,0-.886,1,1.2,1.2,0,0,0-.13.319c-.042.249-.035.5-.053.757.038.13.07.263.116.391a1.879,1.879,0,0,0,.668.807,4.812,4.812,0,0,0,.706.408,5.957,5.957,0,0,0,.851.365,3.647,3.647,0,0,0,1.04.186c.44,0,.881,0,1.321,0,.8-.008,1.6-.019,2.395-.07.516-.04,1.031-.093,1.548-.114.684,0,1.367-.009,2.051-.034,1.139-.046,2.275-.127,3.411-.223.353-.019.963-.055,1.319-.063a20.923,20.923,0,0,1,2.868.147,7.772,7.772,0,0,1,1.108.192,2.84,2.84,0,0,1,.293.07c.081.027.147.123.231.108.053-.009-.062-.088-.092-.132l-.291-1.061a8.638,8.638,0,0,1,.705-1.079c.093-.1.26-.105.393-.151.019-.007.081-.009.061-.006-.189.028-.379.043-.568.075-.7.1-1.4.189-2.089.338-.958.176-1.921.321-2.89.421-1.266.151-2.529.327-3.8.436-.371.017-.863.046-1.235.043a23.3,23.3,0,0,1-2.6-.218,17.578,17.578,0,0,0-4.4-.339,4.813,4.813,0,0,0-2.59.914,3.106,3.106,0,0,0-.654.848,5.051,5.051,0,0,0-.2.578,1.96,1.96,0,0,0,.527,1.758,2.66,2.66,0,0,0,.33.248c.159.062.314.135.477.187a2.435,2.435,0,0,0,.938.012,3.21,3.21,0,0,1,.642-.046c.429,0,.858,0,1.287,0,.455.005.911.013,1.365.052.535.047,1.07.1,1.6.166.673.1,1.345.2,2.021.276l2.936.339c1.6.178,3.2.384,4.813.4.345,0,.69.008,1.035,0,.572-.015,1.333-.072,1.9-.147a9.208,9.208,0,0,0,1.7-.37c.222-.076.429-.192.643-.288.221-.15.458-.279.663-.45a2.74,2.74,0,0,0,.949-2.179,4.65,4.65,0,0,0-.057-.909c-.071-.369-.156-.734-.241-1.1-.046-.24-.1-.479-.129-.721q-.012-.089-.02-.179a.518.518,0,0,0-.01-.155c-.014-.032-.008.068-.012.1s.008-.054.013-.081c.01-.048.028-.132.038-.179l.032-.14a1.8,1.8,0,0,0-.388-1.775,3.107,3.107,0,0,0-.471-.328,2.051,2.051,0,0,0-.906-.186c-.136,0-.273,0-.409-.009a1.177,1.177,0,0,1-.355-.056q-.366-.136-.726-.286a8.24,8.24,0,0,0-1.682-.453,13.279,13.279,0,0,0-2.417-.142l-3.487,0c-1.4,0-2.8,0-4.2-.006a22.81,22.81,0,0,1-2.9-.143c-.6-.1-1.187-.282-1.781-.418l-.155-.047c-.032-.01-.109-.063-.094-.033.026.054.093.076.135.119a.909.909,0,0,1,.187.388.7.7,0,0,1,0,.255,3.279,3.279,0,0,1,.045-.436c0-.015.019-.05.005-.046s-.021.036-.032.053a.937.937,0,0,1-.077.113,1.326,1.326,0,0,1-.653.443c-.128.029-.517.043-.236.037a1.49,1.49,0,0,1,.26.045c.28.069.548.178.824.26.334.108.674.2,1.017.275a8.519,8.519,0,0,0,1.646.179h2.185c.878,0,1.755,0,2.633-.012.96-.013,1.92-.04,2.88-.073.879-.021,1.758,0,2.637,0q.911.021,1.821.081c.546.008,1.092.023,1.635.071.253.024.288.025.534.057a2.689,2.689,0,0,0,1.165.024,6.282,6.282,0,0,0,.827-.467c.147-.369.3-.733.44-1.106a.243.243,0,0,0,0-.09q-.009-.319-.027-.637c-.027-.427-.074-.853-.066-1.281a10.841,10.841,0,0,1,.111-1.609,3.674,3.674,0,0,1,.107-.5c.013-.056.014-.114.031-.169.005-.015.034-.051.02-.043-.1.06-.2.135-.3.2a8.91,8.91,0,0,1-1.5-.116c-.2-.051-.338-.319-.417-.507-.018-.042.066.159.052.126a.458.458,0,0,1-.008-.135c0-.008.006-.031.007-.023,0,.1-.014.192-.018.287q-.022.2-.052.4c-.01.069-.077.265-.04.206a1.132,1.132,0,0,0,.073-.188,1.347,1.347,0,0,1,.744-.684s0,0,0,0l-.014.006a3.665,3.665,0,0,1-.712.094c-.747.063-1.491.147-2.236.224-.673.084-1.348.143-2.027.172-.466.041-.931.094-1.4.116-.7,0-1.4,0-2.1,0-1.862-.01-3.724-.033-5.585-.089-1.1-.038-2.21-.076-3.313-.161-1.511-.117-.1-.025-1.269-.124-.039,0-.079,0-.118,0,.164.119.507.154.492.356a11.942,11.942,0,0,1-.7,2.453c0,.01-.409.014.1-.008.5-.038,1.009-.091,1.514-.115.788-.056,1.574-.134,2.361-.2.9-.087,1.8-.168,2.689-.32a9.7,9.7,0,0,1,1.633-.183c.855,0,1.711-.008,2.566-.045a34.1,34.1,0,0,0,3.492-.347c1.1-.17,2.186-.37,3.28-.544.627-.086,1.255-.176,1.888-.2.129-3.2,1.058-3.023-.431-3.024h-3.267c-.733,0-1.467,0-2.2.013-.81.019-1.619.054-2.426.131-.956.075-1.913.134-2.872.141q-2.078,0-4.157,0c-1.352,0-2.7,0-4.055.029-.08,0-1.5.024-1.5.071-.013,1.009.1,2.016.174,3.021,0,.02.039,0,.059,0a16.783,16.783,0,0,0,1.751-.168c1.117-.179,2.222-.423,3.335-.624,1.28-.21,2.569-.362,3.84-.624.209-.046.42-.087.628-.137.79-.188,1.557-.46,2.345-.657a16.093,16.093,0,0,1,2.038-.4c.664-.084,1.328-.188,2-.21a6.569,6.569,0,0,1,1.238.066,12.982,12.982,0,0,0,1.432.333,3.673,3.673,0,0,0,2.193-.383,4.8,4.8,0,0,0,.529-.494,2.363,2.363,0,0,0,.343-1.686c-.036-.66-.072-1.322-.157-1.978a1.515,1.515,0,1,0-3.006.334Z" fill="#fff" stroke="rgba(0,0,0,0)" stroke-width="1.4"/>
    <path id="path1519-1" d="M-194.84,40.638a7.051,7.051,0,0,0-2.343.678,5.562,5.562,0,0,0-1.581,1.175,4.188,4.188,0,0,0-.345.415c-.02.027-.083.106-.06.082.268-.293.017-.055.233-.252-.437.215-.891.391-1.347.562-.462.187-.928.365-1.381.572-.038.017-.077.033-.114.052-.817.413.727-.334,1.116.1,1.357,1.522.06,2.82.7,2.159.441-.473.93-.9,1.412-1.327a10.25,10.25,0,0,0,1.129-1.029,2.433,2.433,0,0,0,.564-1.714,4.7,4.7,0,0,0-.2-.664,2.955,2.955,0,0,0-.353-.472,2.5,2.5,0,0,0-1.724-.615,3.98,3.98,0,0,0-1.071.173,6.119,6.119,0,0,0-2.31,1.353,12.088,12.088,0,0,1-1.524,1.19,14.357,14.357,0,0,0-1.4.965c-.58.528-1.281,1.4-.673,2.282.338.493,1.049.573,1.574.859a5.919,5.919,0,0,0,3.012-1.468,4.3,4.3,0,0,0,1.3-1.671c.051-.128.09-.26.134-.39.15-.5.245-1.008.363-1.513a6.891,6.891,0,0,0,.184-1.033,1.453,1.453,0,0,0,0-.341,2.212,2.212,0,0,0-.277-.775,1.728,1.728,0,0,0-1.474-.752,2.518,2.518,0,0,0-1.072.279,13.162,13.162,0,0,0-2.142,1.391c-.5.4-1,.807-1.5,1.218a7.655,7.655,0,0,0-.837.821,6.717,6.717,0,0,1-.562.566,3.333,3.333,0,0,1-.368.29l-.042.028.093-.061c-.578.332.231-.125-.325.191-.021.012.041-.026.061-.039-.029-.064-.124.066-.187.1-.012.006.023-.013.034-.021s-.018.007-.027.011c.953-.4,1.477.149,1.973.913a1.088,1.088,0,0,1,.046.7c.128-.271.254-.544.39-.81.2-.386.357-.789.539-1.183a1.485,1.485,0,0,1,.477-.641c.269-.224.554-.427.836-.634a1.987,1.987,0,0,0,.888-1.535,2.818,2.818,0,0,0-.21-1.4c-.087-.166-.2-.317-.3-.476a3.443,3.443,0,0,0-.461-.383,1.963,1.963,0,0,0-1.335-.233,3.31,3.31,0,0,0-1.326.557,4.623,4.623,0,0,0-1.314,1.379,7.9,7.9,0,0,0-.556,1.164c-.107.247.027-.066-.106.259-.008.021.015-.042.023-.063a.713.713,0,0,1,.081-.135c.318-.3.651-.707,1.2-.574a3.81,3.81,0,0,1,1.3.775c.166.125.09.315.158.468.011.024,0-.052.005-.079.035-.133.06-.238.082-.311.007-.023.015-.045.022-.068.1-.346,0-.013,0,0-.017.046-.1.2.02-.03a1.548,1.548,0,1,0-2.774-1.364h0a3.1,3.1,0,0,0-.215.543,5.125,5.125,0,0,0-.221,1.128c-.007.271-.013.98.2,1.165A3.6,3.6,0,0,0-207.4,44c.576.156.963-.3,1.308-.609a3,3,0,0,0,.411-.752,7.6,7.6,0,0,1,.319-.716,1.345,1.345,0,0,1,.415-.466c-.05-.051.027.039.055-.057.005-.019-.038-.007-.057-.009a2.149,2.149,0,0,1-.339-.05,1.219,1.219,0,0,1-.63-.437c-.132-.244-.158-.23-.2-.418,0-.01,0,.036.011.028s-.015-.082.012-.08c.012,0,0,.023,0,.035a1.419,1.419,0,0,1,.263-.506,1.159,1.159,0,0,1,.15-.145.249.249,0,0,1,.048-.033c-.036.027-.073.052-.109.078a14.215,14.215,0,0,0-1.135.884,4.665,4.665,0,0,0-1.155,1.589c-.165.359-.311.725-.488,1.078a12.183,12.183,0,0,0-.581,1.277,1.743,1.743,0,0,0-.051,1.149,2.49,2.49,0,0,0,.858,1,1.486,1.486,0,0,0,1.389-.01c.047-.021.474-.256.2-.1-.054.03.262-.129.166-.081.052-.029.1-.058.155-.089a.84.84,0,0,0-.094.051.62.62,0,0,0,.067-.035c.053-.028.167-.092.208-.122.026-.019-.056.031-.084.046a5.207,5.207,0,0,0,.881-.641,11.036,11.036,0,0,0,.823-.816,4.9,4.9,0,0,1,.545-.544c.455-.378.917-.748,1.376-1.122a13.32,13.32,0,0,1,1.5-1.022c.016-.012.066-.033.047-.036-.381-.057-.286.158-.765-.145a1.442,1.442,0,0,1-.746-1.373,4.06,4.06,0,0,1-.12.639c-.1.43-.182.862-.3,1.286.015.064,0-.011-.034.12,0,.007.011.014.008.02a1.479,1.479,0,0,1-.367.412,7.56,7.56,0,0,1-.841.6,3.424,3.424,0,0,0-.342.184c-.006,0,.006.013.01.019.424.289,1.023.418,1.273.866.217.39.005.9-.044,1.34-.008.07-.079.118-.122.174-.009.012-.042.042-.034.03s.086-.09.093-.1a2.078,2.078,0,0,1,.343-.252c.262-.177.532-.343.8-.517a14.914,14.914,0,0,0,1.786-1.389,3.394,3.394,0,0,1,1.084-.719l.136-.047c.025-.009.077,0,.076-.029s-.054-.026-.079-.043a1.461,1.461,0,0,1-.529-.593c-.085-.374-.221-.735.085-1.026a1.09,1.09,0,0,1-.195.2c-.219.189-.45.364-.664.558a22.515,22.515,0,0,0-1.661,1.576c-.657.753-1.006,1.024.257,2.683.474.622,1.243.05,1.648-.131.379-.183.782-.316,1.168-.482a13.119,13.119,0,0,0,1.915-.845c.109-.078.225-.146.326-.234a6.21,6.21,0,0,0,.47-.532,2.16,2.16,0,0,1,.592-.454,4.777,4.777,0,0,1,.682-.269c.094-.028.19-.052.285-.079a.6.6,0,0,0,.129-.039c.013-.007-.029-.006-.043-.009a1.548,1.548,0,1,0,0-3.092Z" fill="#fff" stroke="rgba(0,0,0,0)" stroke-width="1.4"/>
    <path id="path1521-0" d="M-184.8,40.105a.973.973,0,0,0,.085-.123c.006-.011-.024.01-.034.017-.047.033-.091.07-.137.1-.194.141-.4.266-.6.4-.4.246-.827.434-1.24.653-.577.325-1.072.768-1.617,1.138a11.81,11.81,0,0,1-1.6.8c-.648.278-1.285.58-1.929.867a12.529,12.529,0,0,1-2.068.644,17.537,17.537,0,0,1-2.119.363c-.882.091.86-.122,1.477,1.071.229.444-.237.97-.331,1.461-.005.024.017.068.041.062a4.194,4.194,0,0,0,.5-.2l.627-.245c.578-.23,1.165-.44,1.74-.677a4.332,4.332,0,0,0,.406-.175c.161-.086.4-.12.463-.292a13.43,13.43,0,0,0,.372-2.106,10.7,10.7,0,0,0-1.213-.786A1.809,1.809,0,0,0-192.6,43a14.284,14.284,0,0,0-2.679.1,10.1,10.1,0,0,0-2.4.547,2.447,2.447,0,0,0-1.155.843,3.138,3.138,0,0,0-.233.582c-.84-1.389.331,1.6.243,1.2-.034-.156-.144-.287-.19-.44a1.268,1.268,0,0,1,.027-.677,1.859,1.859,0,0,1,.116-.255c.006-.109.145-.13.179-.217.007-.019-.039.011-.058.017-.1.029-.189.054-.286.077-.152.04-.4-.014.136.024a1.119,1.119,0,0,1,.139.027c.728.31.848.268,1.072,1.617.047.283-.306.508-.336.793-.01.1.177-.081.266-.122.869-.4.394-.188,1.352-.6,1.68-.7,3.317-1.5,4.973-2.249a27.822,27.822,0,0,1,2.661-1.024,2.746,2.746,0,0,0,1.236-.678,5.68,5.68,0,0,0,.387-.689,4.8,4.8,0,0,0-.255-1.39,1.758,1.758,0,0,0-.784-.6,1.984,1.984,0,0,0-.587-.157,9.424,9.424,0,0,0-1.986-.078,20.559,20.559,0,0,0-3.642.49c-.786.192-2.137.493-1.938,1.747.108.68.905,1.039,1.358,1.558.164.016.327.044.491.048a8.315,8.315,0,0,0,1.265-.091c.683-.089,1.361-.222,2.04-.339.954-.185,1.919-.3,2.878-.447.444-.056.881-.151,1.322-.223.279-.064.563-.1.843-.162.082-.016.159-.047.239-.068.021-.006-.042.012-.062.02,0,0,.006,0,.01,0,.034,0,.069,0,.1-.006-.044.046-.1,0-.145.007,0,0,0,0,.006,0a.538.538,0,0,0,.075.014,1.184,1.184,0,0,1-.4-.142c.018.148-.146-.165-.155-.1,0,.026.035.04.051.06.093.119.182.24.276.357.239.323.506.625.772.927.049.039.377.442.245.275.3.391.084.146.564.549.015.013-.035-.018-.05-.031a1.364,1.364,0,0,1-.408-.488.931.931,0,0,1-.078-.2,2,2,0,0,1-.041-.616,2.945,2.945,0,0,1,.247-.6c0-.011.019-.02.015-.031s-.03,0-.045,0a7.817,7.817,0,0,1-1.247.437c-.667.182-1.328.379-1.978.614-.546.225-1.1.427-1.636.682-1.092,1.233-1.219.853.119,2.885.1.159.364.112.55.15a5.976,5.976,0,0,0,1.17.06c.64-.018,1.279-.048,1.918-.066,1.467-.037.9.185.523-3.1-.012-.105-.212.014-.317.022-.561.055-1.122.109-1.683.17-.5.06-.995.146-1.488.244a7.491,7.491,0,0,0-.813.2,3.981,3.981,0,0,1-.411.035,4.227,4.227,0,0,0-.732.105,19.192,19.192,0,0,0,.222,3.062c.039.163.336,0,.5-.009a15.375,15.375,0,0,0,1.572-.256c.72-.112,1.439-.231,2.16-.339a13.006,13.006,0,0,1,1.446-.137c.248-.009.5-.011.744-.01l.262,0a1.922,1.922,0,0,0,1.049-.3,1.47,1.47,0,0,1-1.75-.171c-.1-.073-.331-.36-.242-.277.119.111.22.24.331.36a1.943,1.943,0,0,0,1.222.389,3.689,3.689,0,0,0,.868-.067,4.081,4.081,0,0,0,.839-.592,1.876,1.876,0,0,0,.053-2.016,3.525,3.525,0,0,0-.473-.768,6.959,6.959,0,0,0-1.205-.559c-.308-.076-.986.272-1.324.394-.362.094-.729.165-1.1.239a6.718,6.718,0,0,0-1.293.374,6.543,6.543,0,0,1-.7.284c-.357.12-.707.26-1.073.347a4.75,4.75,0,0,1-.542.142,1.546,1.546,0,0,1-.167.006l-.416,0h-.369a2.285,2.285,0,0,0-.668.092c-.021.005.042-.01.061-.019s-.016,0-.024,0c-.121.008,0,0,.011-.007s-.028,0-.041-.005.035-.007.052,0,.052.011.078.017c.025-.023.038,0,.072,0a1.548,1.548,0,1,0-2.515,1.8h0c.075.1.143.2.224.294a3.055,3.055,0,0,0,.916.711c.12.049.236.106.359.147a2.958,2.958,0,0,0,1.293.108c.058-.009.116-.016.174-.027.076-.015.151-.034.226-.052a.358.358,0,0,1-.053.012c-.539.059-.288.016-.164.025h.36l.43,0a4.605,4.605,0,0,0,.555-.031,4.814,4.814,0,0,0,.893-.207c.438-.111.865-.256,1.29-.409a9.426,9.426,0,0,0,.978-.389,4.212,4.212,0,0,1,.677-.178,14.075,14.075,0,0,0,1.53-.362c.227-.083.455-.164.675-.264,0,0-.01,0-.015,0-.149.018-.3.1-.448.055a8.228,8.228,0,0,1-1.116-.557c-.128-.178.013-.027.046.093.053-.226-.2.228,0-.506.215-.8.356-.69,1.068-1.16.774-.1.26-.029.072-.049-.014,0-.057,0-.043,0a1.687,1.687,0,0,1,.55.21,1.317,1.317,0,0,1,.13.1,1.743,1.743,0,0,0,.294.33c.113.075-.155-.227-.263-.309a1.6,1.6,0,0,0-1.953-.162c.079-.037.16-.069.236-.11.036-.02-.156.038-.115.045s.082-.035.125-.043c.136-.025.275-.035.411-.054.019,0-.077,0-.058,0l-.273,0c-.3,0-.592,0-.887.013a16.275,16.275,0,0,0-1.766.167c-.744.111-1.486.234-2.229.35l-.424.073c-.119.022-.238.045-.358.066-.1.018-.206.035-.31.051a.6.6,0,0,0-.195.029c-.031.017.068.015.1.022q.011,1.519.022,3.038c.065-.014.131-.025.2-.038.016,0,.064-.008.048-.01s-.3.014.029,0a5.213,5.213,0,0,0,1.105-.149,4.46,4.46,0,0,1,.568-.143c.405-.081.811-.153,1.221-.2.571-.062,1.143-.117,1.714-.174-1.163-.006-.089.043-.1-3.09,0-.014-.028,0-.042,0l-.119,0-.4.009c-.617.018-1.234.045-1.852.065a3.886,3.886,0,0,1-.483-.007c-.038,0-.142-.031-.115,0,.049.051.166.021.195.085.933,2.129,1.1,1.508-.025,2.683.063-.068.005-.009.222-.1.359-.144.714-.3,1.075-.439.592-.214,1.195-.389,1.8-.556a9.6,9.6,0,0,0,1.9-.714,3.084,3.084,0,0,0,.907-.715,1.711,1.711,0,0,0,.264-1.844,1.74,1.74,0,0,0-.508-.647c-.059-.056-.256-.2-.2-.141.092.092.2.163.3.257a1.44,1.44,0,0,1,.124.171,4.747,4.747,0,0,0-.539-.668c-.236-.268-.473-.535-.684-.823a4.2,4.2,0,0,0-.962-1.01c-.106-.055-.208-.119-.318-.164a2.823,2.823,0,0,0-1.04-.169,3.287,3.287,0,0,0-.812.132l.064-.007c-.229.037-.46.066-.686.124-.431.072-.859.163-1.293.218-.977.153-1.96.265-2.931.455-.876.152-1.75.325-2.637.4.368.5,1.055.885,1.1,1.5.1,1.316-1.528,1.5-.73,1.3l.258-.064a17.379,17.379,0,0,1,3.037-.415,9.222,9.222,0,0,1,1.03,0,1.446,1.446,0,0,0,.263.02c.025,0-.038-.032-.056-.049-.167-.156-.418-.256-.5-.47a5.39,5.39,0,0,1-.162-1.256,5.318,5.318,0,0,1,.352-.571c.147-.183.229-.175.389-.255.028-.014-.057.024-.085.036-.137.056-.161.063-.312.119a30.97,30.97,0,0,0-2.948,1.138c-1.633.744-3.249,1.527-4.9,2.219-.489.209-1.152.481-1.626.728a2.5,2.5,0,0,0-.694.4c-.326.341-.786.692-.806,1.164-.059,1.391.385,1.476,1.135,1.827a2.276,2.276,0,0,0,.243.056,3.012,3.012,0,0,0,1.073-.079,3.441,3.441,0,0,0,1.919-1.053,3.694,3.694,0,0,0,.281-.48,1.864,1.864,0,0,0,.107-1.038c-.046-.2-.157-.379-.217-.574-.1-.338,1.082,2.562.167,1.047a2.784,2.784,0,0,1-.219.513c-.364.526-.58.479-.312.337a6.964,6.964,0,0,1,1.606-.357,14.431,14.431,0,0,1,1.616-.113c.149,0,.3.014.448.018.061,0,.222.049.183,0a6.944,6.944,0,0,0-.729-.668c.157-.645.277-1.3.471-1.934.015-.047.184-.075.139-.054-.661.313-1.367.525-2.04.809-.122.048-1.18.458-1.3.517-.286.141-.66.2-.833.467-.318.49-.764,1.119-.55,1.663.524,1.334,1.1,1.231,1.856,1.152A20.722,20.722,0,0,0-193.2,47.6a15.453,15.453,0,0,0,2.581-.821c.641-.286,1.275-.586,1.919-.863a13.736,13.736,0,0,0,2.108-1.08c.447-.31.868-.655,1.32-.958.481-.26.987-.474,1.447-.774a5.892,5.892,0,0,0,1.594-1.284A1.548,1.548,0,1,0-184.8,40.1Z" fill="#fff" stroke="rgba(0,0,0,0)" stroke-width="1.4"/>
    <path id="path1523-1" d="M-181.751,3.373V2.022a1.879,1.879,0,0,0-.712-1.838,3.713,3.713,0,0,0-1.217-.27c-.237.1-.482.174-.711.288a1.614,1.614,0,0,0-.279.2,8.307,8.307,0,0,0-.78.753c-.1.11-.141.165-.226.258l-.051.054a1.4,1.4,0,0,1,.526-.333c-.233.045-.468.074-.7.119a8.6,8.6,0,0,1-.924.26,6.764,6.764,0,0,1-1.557,0c-1.009-.073-2.021-.083-3.031-.136-1.106-.037-2.194-.24-3.293-.349q-2.1-.172-4.2-.336c-1.065-.084-2.132-.129-3.2-.15-.644.006-1.287.039-1.927.107a16.126,16.126,0,0,0-1.6.241,6.044,6.044,0,0,0-1.475.441c-.228.094-.417.261-.641.361-1.056.266-.692,1.472-.35,2.9.067.282.566.122.849.183,1.869.027,3.738-.018,5.607-.047,1.267-.033,2.535-.013,3.8-.051,1.621-.077,1.579.13,1.24-3.065a12.171,12.171,0,0,0-1.261-.181c-1.882-.211-3.739-.581-5.6-.938A17.636,17.636,0,0,0-205.6.173c-.292,0-.579.052-.87.07A2.83,2.83,0,0,1-206.853.2a.514.514,0,0,0-.067-.009,1.208,1.208,0,0,1,.273.06,1.431,1.431,0,0,1,.856.825c-.011-.226-.016-.452-.018-.679,0-.145,0-.29,0-.435,0-.015,0-.059,0-.045l-.059.417a1.217,1.217,0,0,0-.074.193c-.009.044.041-.08.06-.121.276-.6-.032.056.114-.254a5.113,5.113,0,0,1,.619-.94c.081-.09.148-.2.237-.281.016-.015-.027.035-.043.051a.682.682,0,0,1-.113.093c-.077.04-.15.087-.23.12-.242.1-.8.181-.965,0a5.408,5.408,0,0,1-.985-1.7c-.056-.143.1-.29.152-.435a7.369,7.369,0,0,0-.715,1.288A1.931,1.931,0,0,0-207.482.57a2.232,2.232,0,0,0,1.281.613,9.722,9.722,0,0,0,1.818.122,4.824,4.824,0,0,0,.935-.144,2.634,2.634,0,0,0,1.624-1.21,2.352,2.352,0,0,0,.288-.9,4.661,4.661,0,0,0-.03-.649,2.6,2.6,0,0,0-1.12-1.564,8.858,8.858,0,0,0-.959-.538s.017,0,.013,0c-.19-.142-.395-.269-.6-.394a6.836,6.836,0,0,0-1.075-.518,4.881,4.881,0,0,0-.543-.17c-.037-.01.075.018.112.03a1.72,1.72,0,0,0-1.638.09,1.592,1.592,0,0,0-.709.945,3.163,3.163,0,0,0-.111,1.577,1.866,1.866,0,0,0,.1.405c.1.227.231.436.346.653a6.932,6.932,0,0,0,.807.652,5.819,5.819,0,0,0,1.657.482c.633.115,1.274.175,1.913.235A2.85,2.85,0,0,0-201.038-.2a4.235,4.235,0,0,0,.447-.617,4.932,4.932,0,0,0,.264-.916,1.2,1.2,0,0,1,.136-.392c0-.024.273-.314.177-.179-.689.563-2.038-.777-2.178-.979-.243-.352.192-.836.245-1.261.006-.046-.068.062-.1.094l-.249.239a14.409,14.409,0,0,0-1.878,2.257c-.539.823-1.508,2.145-.135,3.064.547.366,1.314-.084,1.971-.125a6.372,6.372,0,0,0,1.329-2.286,6.939,6.939,0,0,0,.411-1.928,2.012,2.012,0,0,0-.288-1.426,5.689,5.689,0,0,0-.537-.505,2.944,2.944,0,0,0-1.635-.268,3.613,3.613,0,0,0-1.052.274c-.052,0-.113,0-.169,0-.154,0-.308.012-.462,0-.009,0,.035,0,.027-.005a.134.134,0,0,0-.049-.008,8.72,8.72,0,0,0-.9-.077c-.049.066.044-.005.033-.008-.192-.05-.39-.086-.585-.123a2.852,2.852,0,0,0-.881-.048c-.133.02-.262.064-.393.1a2.46,2.46,0,0,0-.9.585,1.187,1.187,0,0,1,1.187-.3,4.128,4.128,0,0,1,.987.667l.187.428c.007.034.03.134.021.1a2.46,2.46,0,0,0-.348-.856c-.062-.107-.773-.777-.2-.2a1.413,1.413,0,0,1,.014,1.693c-.193.34-.65.434-.975.652-.025,0-.07-.012-.075.013l.21,0c.165,0,.321.013.486.023a4.966,4.966,0,0,1,1.4.318l-.029.008c.005.008.024.023.014.026-.06.019-.083-.1-.018.085a2.914,2.914,0,0,0,.973,1.254,3.945,3.945,0,0,0,.345.2,3.72,3.72,0,0,0,2.633-.008,14.175,14.175,0,0,0,1.71-.577,7.3,7.3,0,0,0,.942-.564c.212-.109.429-.214.649-.308s.448-.184.675-.27c.021-.008.086-.027.064-.023-1.236.187-.714.42-2.025-1.686-.084-.134.267-.568.062-.326-.073.086-.145.172-.217.258-.491.578-1.025,1.12-1.508,1.7a8.82,8.82,0,0,0-.614.825c-.314.492-.98,1.592-.54,2.163a6.094,6.094,0,0,0,1.548,1.059,4.808,4.808,0,0,0,.6-.093A7.165,7.165,0,0,0-198.125.2c.638-.542,1.241-1.122,1.862-1.683a4.969,4.969,0,0,1,1.024-.686c.1-.045.2-.087.3-.125.017-.006.069-.018.051-.018-.342,0-.774.244-1.026.013a6.167,6.167,0,0,1-.966-1.834c.029-.082.1-.161.088-.248-.008-.054-.072.083-.107.125-.077.094-.151.19-.227.285-.283.349-.559.694-.822,1.059a7.5,7.5,0,0,0-.741,1.344,5.214,5.214,0,0,0-.254.709c-.035.159-.05.321-.075.482a4.011,4.011,0,0,0,.151.827,1.775,1.775,0,0,0,1.433,1.062A2.1,2.1,0,0,0-195.87.979c.141-.1.261-.229.391-.344a15.333,15.333,0,0,0,1.691-2.224,5.527,5.527,0,0,1,.911-1.154c-.013-.019.243-.167.221-.122a1.279,1.279,0,0,1-1.378-.313,2.01,2.01,0,0,1-.44-.778c-.042-.1.066-.288-.036-.312s-.078.184-.117.277l-.192.461A20.259,20.259,0,0,0-195.8-.765a1.966,1.966,0,0,0,.4,1.873,1.465,1.465,0,0,0,.607.441,2.091,2.091,0,0,0,1.651.016,6.978,6.978,0,0,0,.631-.324A6.12,6.12,0,0,0-190.65-.953a6.988,6.988,0,0,1,.864-1.5c.009-.005.027-.025.027-.014s-.015.027-.027.036a.971.971,0,0,1-.186.123,1.24,1.24,0,0,1-.818.075,1.278,1.278,0,0,1-.649-1.3,14.063,14.063,0,0,0-.8,1.394,5.918,5.918,0,0,0-.521,1.477c-.018.135-.018.272-.028.408a3.648,3.648,0,0,0,.174.719A1.9,1.9,0,0,0-190.7,1.484a4.34,4.34,0,0,0,.595-.157A4.638,4.638,0,0,0-188.11-.9a6.763,6.763,0,0,1,.861-1.454,2.1,2.1,0,0,1,.21-.232c.019-.017.08-.061.065-.041a.394.394,0,0,1-.085.065c-.787.2-1.037.407-1.875-.509-.422-.461-.046-1.41-.335-.875l-.16.294A9.6,9.6,0,0,0-190.31-1.6a1.835,1.835,0,0,0,.579,2.073,2.013,2.013,0,0,0,1.32.39c.207-.04.418-.062.621-.119a3.986,3.986,0,0,0,1.8-1.318c.273-.25.375-.647.651-.891a3.361,3.361,0,0,1,.588-.437,5.435,5.435,0,0,0,.838-.726c.228-.187-.066.038-.06.036a2.447,2.447,0,0,0,.411-.32A5.277,5.277,0,0,0-183.34-4.8c-.223-.867-1.645-.826-2.321-.836-.492-.006-.984-.005-1.476-.005h-.811a5.953,5.953,0,0,0-1.3.111,2.75,2.75,0,0,0-1.167.5c-.122.108-.232.229-.348.343a1.624,1.624,0,0,0-.221.355,1.86,1.86,0,0,0,.432,2.135,3.216,3.216,0,0,0,.9.622,4.544,4.544,0,0,0,2.22.466c.142-.011.282-.041.423-.062a4.691,4.691,0,0,0,1.73-.881c.251-.185.48-.4.71-.609.263-.156-.07.032-.106.049a5.769,5.769,0,0,0,.549-.279,6.634,6.634,0,0,0,.747-.556c-.005.006-.021.016-.014.018s.263-.174.3-.2c.011-.008.046-.03.034-.023a1.436,1.436,0,0,1-.629.228c-.581-.092-.568-.013-.971-.281-.06-.04-.222-.184-.164-.142a2.676,2.676,0,0,0,.553.374c-.159-.11-.323-.213-.477-.329-.031-.023-.1-.118-.077-.085.031.049.074.1.105.141a.7.7,0,0,0,.052.063,1.256,1.256,0,0,1-.294-.781c-.053.2-.1.408-.166.609a6.008,6.008,0,0,0-.269,1.237c.03.028-.1.545-.021.2a.969.969,0,0,1,.247-.385c.024-.029.064-.045.082-.078.008-.015-.032.008-.048.014a1.68,1.68,0,0,1-.274.092,19.238,19.238,0,0,0-1.9.673c-.789.3-1.589.572-2.4.814a13.75,13.75,0,0,1-1.807.374,7.649,7.649,0,0,0-1.406.284c-.506.249-.781.321-1.039,1.051a2.083,2.083,0,0,0,.008,1.049,1.2,1.2,0,0,0,.279.532,2.139,2.139,0,0,0,1.071.739,8.761,8.761,0,0,0,3.621.039c.682-.088,1.366-.16,2.053-.2.268-.012.535-.016.8-.015a3.248,3.248,0,0,0,1.334-.374,3.126,3.126,0,0,0,.63-.45c.126-.112.066-.08.124-.11.01-.008.021-.014.031-.023.143-.121.416-.374.291-.243A4.294,4.294,0,0,0-183.186.9l-.054.056c.043-.041.085-.083.129-.123.061-.057-.053.053-.051.051.052-.038.1-.08.153-.12.011-.009.045-.031.033-.026-.833.375-.774.553-1.886,0a1.169,1.169,0,0,1-.471-.693c.007.159.008.319.009.478,0,.093,0,.1,0,.192a.465.465,0,0,0,0,.057c0-.041-.036-.124.005-.124,3.125-.06,3.087,1.1,3.085-.052q0-.58,0-1.159a2.172,2.172,0,0,0-.636-1.639,3.112,3.112,0,0,0-.5-.318,3.2,3.2,0,0,0-2.685.35,21.868,21.868,0,0,1-2.432.983,10.156,10.156,0,0,1-2.486.409c-.977.049-1.955.082-2.929.178a10.955,10.955,0,0,0-2.643.593,4.605,4.605,0,0,0-1.581,1.042c-.133.263-.408.495-.4.789.029.952.227,1.452.93,1.832a4.123,4.123,0,0,0,1.42.367c.312.044.626.054.939.08.1.008.2.036.166.026-.1-.029-.2-.053-.306-.08a6.192,6.192,0,0,1-.841-1.918c-.023-.345.459-.517.662-.8.02-.027-.066.013-.1.022-.36.1-.719.187-1.083.27-.647.144-1.285.324-1.918.516a3.316,3.316,0,0,0-.45.185,1.548,1.548,0,1,0,1.345,2.784h0c-.017,0-.014,0,0-.01.565-.172,1.133-.333,1.709-.46.672-.154,2.674-.51,2.722-1.418.038-.719-.539-1.336-.808-2-.148-.047-.295-.1-.445-.141-.384-.1-.8-.046-1.185-.118L-196,.927c-.045-.006-.114-.058-.136-.018s.071.048.1.076c.068.058.169.1.2.182.481,1.41.5,1.039-.041,1.986-.115.054.165-.136.262-.191.043-.024.087-.045.131-.068a7.6,7.6,0,0,1,1.887-.42c.954-.1,1.912-.117,2.869-.172a12.95,12.95,0,0,0,3.266-.575A24.427,24.427,0,0,0-184.818.66c.176-.077.355-.147.529-.23.019-.009.071-.026.052-.035-.077-.035-.387-.009-.444-.119a1.262,1.262,0,0,1-.589-.653,1.834,1.834,0,0,1-.082-.315c-.012-.041.026.17.025.127q0,.582,0,1.164c0,1.149-.041.253,3.086.311.008,0,.006-.388.006-.408a6.926,6.926,0,0,0-.049-.953,1.678,1.678,0,0,0-.6-1.184,1.641,1.641,0,0,0-2.045-.024c-.126.1-.25.2-.369.306-.009.009.02-.016.029-.024-.055.051-.111.1-.165.153-.01.009-.038.039-.026.031s.054-.04.041-.029c-.121.1-.179.125-.116.093-.219.166-.354.289-.47.38a2.38,2.38,0,0,0-.2.171c-.016.015-.069.05-.048.044s.072-.043.038-.017c.008,0,.029-.01.023-.006a.53.53,0,0,1-.115.045c.04.045.142-.072.18-.009-.326,0-.651,0-.977.02-.755.042-1.507.117-2.256.215-.479.058-.956.122-1.438.147a3.518,3.518,0,0,1-.614,0,.476.476,0,0,0-.067.009c.18.179.455.421.476.7.061.8-.066,1.389-.907,1.72a8.161,8.161,0,0,1,.876-.15,16.672,16.672,0,0,0,2.209-.466c.891-.268,1.774-.564,2.643-.9a16.546,16.546,0,0,1,1.7-.6,2.8,2.8,0,0,0,1.912-1.4,3.428,3.428,0,0,0,.239-1.051,3.006,3.006,0,0,1,.157-.683,6.406,6.406,0,0,0,.294-1.363c-.005-.137,0-.276-.016-.412a1.916,1.916,0,0,0-.41-.926c.011.015.021.031.033.046s-.018-.027-.028-.04c-.021-.03-.07-.1-.09-.123-.238-.293-.15-.166-.639-.516.208.1.2.164.416.3.074.046-.124-.125-.2-.175-.445-.308-.432-.222-1.066-.335a1.873,1.873,0,0,0-.961.322c-.2.137-.411.267-.6.424.107-.05-.32.218-.236.19-.049.039.022-.017-.141.077-.022.013.2-.1-.006,0-.031.015-.125.054-.091.046a.909.909,0,0,0,.134-.057,3.026,3.026,0,0,0-.782.467c-.192.165-.371.344-.571.5-.094.07-.189.151-.288.214-.038.024-.079.043-.117.065-.019.011-.045.016-.056.034s.019.007.029.011c-.2.117-.453-.048-.654-.091-.022-.005-.045-.022-.067-.015s0,.025,0,.036a2.677,2.677,0,0,1,.147.3,1.347,1.347,0,0,1-.247,1.26,1.183,1.183,0,0,1-.262.219c-.028.013-.055.026-.084.036s-.086.029-.066.018c.2-.111.035.007.094-.036a2.9,2.9,0,0,1,.741-.06h.813c.475,0,.95,0,1.425,0,.288,0,.254,0,.523.01.044,0,.164.033.131,0-.051-.045-.141-.02-.2-.061-1.254-.947-.786-.559-.512-2.5.065-.052.128-.105.194-.156.012-.009.051-.029.038-.021a2.762,2.762,0,0,0-.588.466c-.1.1-.2.2-.31.3a6.1,6.1,0,0,0-1.185.937,7.243,7.243,0,0,0-.721.969c-.016.02-.335.355-.291.363a1.183,1.183,0,0,0,.176.005,2.057,2.057,0,0,1,.334.086,1.443,1.443,0,0,1,.762.948,1.2,1.2,0,0,1,.019.442c0,.032.007.09-.025.094s.014-.062.021-.093a6.484,6.484,0,0,1,.631-1.437A8.755,8.755,0,0,0-186.3-3a1.2,1.2,0,0,0,.149-.44,2.227,2.227,0,0,0-.178-1.3c-.785-1.054-1.216-.8-2.067-.612a3.757,3.757,0,0,0-1.282,1.085,9.026,9.026,0,0,0-1.142,1.88c-.161.3-.148.284-.321.566-.038.061-.077.122-.117.182-.023.035-.072.061-.071.1s.119-.067.13-.028a2.054,2.054,0,0,1,.279-.037,1.254,1.254,0,0,1,1.123.8,2.719,2.719,0,0,1,.1.55c-.009.058-.016.117-.028.175,0,0-.011.01-.01.006a4.231,4.231,0,0,1,.269-.7c.282-.6.715-1.13.955-1.757a2,2,0,0,0,.15-.584,4.086,4.086,0,0,0-.25-1.152c-.123-.338-.724-.7-1.047-.844a2.016,2.016,0,0,0-.95-.166,2.325,2.325,0,0,0-1.535.828,8.489,8.489,0,0,0-1.192,1.966,5.029,5.029,0,0,1-.452.723c-.06.075-.129.142-.192.214-.1.118-.1.068-.088.158.793.048,1.1.407,1.283,1.176a1,1,0,0,1-.03.316c0,.024.005-.049.007-.073a17.194,17.194,0,0,1,.847-2.379,4.363,4.363,0,0,0,.556-2.013,2,2,0,0,0-.474-1.042c-.625-.63-.978-.495-1.648-.433a3.772,3.772,0,0,0-1.413.788,8.311,8.311,0,0,0-1.389,1.7,18.736,18.736,0,0,1-1.23,1.7c-.041.042-.116.068-.124.126-.005.036.073-.012.109-.013A1.815,1.815,0,0,1-197-1.55a1.356,1.356,0,0,1,1,.86,2.742,2.742,0,0,1,.054.583.671.671,0,0,1-.045.138c-.019.032.015-.074.027-.109a4.152,4.152,0,0,1,.331-.734c.06-.1.127-.2.191-.3.293-.417.625-.8.942-1.2a3.716,3.716,0,0,0,.247-.314c.116-.184.209-.383.313-.574a6.332,6.332,0,0,0-.915-2c-.425-.424-1.4.1-1.841.3a8.234,8.234,0,0,0-1.642,1.119c-.573.517-1.131,1.049-1.713,1.556-.252.2-.33.269-.588.453-.084.06-.17.118-.256.175a.877.877,0,0,0-.178.112c-.071.077.817-.227.315,0a5.8,5.8,0,0,1,1.307,1.053,1.181,1.181,0,0,1-.058.957c-.014.024.021-.051.032-.075a2.414,2.414,0,0,1,.179-.312,29.071,29.071,0,0,1,1.949-2.3c.164-.2.935-1.089.82-1.337-.686-1.472-.972-2.2-2.173-1.756-.269.1-.543.2-.8.322a8.6,8.6,0,0,0-1.159.588,5.147,5.147,0,0,1-.478.3,10.75,10.75,0,0,1-1.241.41,4.388,4.388,0,0,1-.455.113.613.613,0,0,0-.136.029c-.011.005.017.018.027.024.269.151-.089-.071.157.084a.891.891,0,0,1,.173.181c.005.007,0,.033-.005.026a.405.405,0,0,1-.039-.069c-.028-.056-.052-.115-.078-.172a3.234,3.234,0,0,0-1.636-1.675,8.387,8.387,0,0,0-2.33-.524,7.145,7.145,0,0,0-1.332,0c-.357.223-.852.309-1.072.668a1.575,1.575,0,0,0,.087,1.9c.092.1.184.2.277.294a.5.5,0,0,0,.046.038l.011.009a1.2,1.2,0,0,1-.2-.222c-.42-.809.071.233-.2-.516-.083-.233.427,1.844.24.7a4.27,4.27,0,0,0,1.016.713,1.687,1.687,0,0,0,1.531-.463s.151-.141.139-.133c-.129.082-.209.189-.368.218a1.14,1.14,0,0,1-.433.042c-.07,0,.216,0,.152.015a8.858,8.858,0,0,0,.991.182,5.657,5.657,0,0,1,.608.051,5.866,5.866,0,0,0,1.038.036,3.553,3.553,0,0,0,1.139-.2l.141-.054c.022-.009.083-.01.067-.028s-.051.013-.077.017-.044,0-.033,0c.031-.007.063-.009.095-.014l.044-.008c-.014,0-.056,0-.042-.005.031,0,.063,0,.094,0s.1.006.077,0c-.312-.111.386.2-.406-.178a5.1,5.1,0,0,1-.423-.435,1.429,1.429,0,0,1-.194-.747c-.02-.13.027.354-.008.235a3.735,3.735,0,0,1-.209,1.056c-.1.273-.221.54-.351.8-.032.065-.067.128-.1.192-.018.034-.092.083-.057.1s.068-.051.1-.077c.6,0,1.327-.355,1.8.013s.359,1.184.51,1.783c.007.027-.056.1-.044.072.044-.088.167-.3.213-.375.056-.09.115-.177.173-.266a11.27,11.27,0,0,1,1.489-1.8c.471-.452,1.4-1.223.973-2.008-.775-1.42-1.591-1.43-2.476-.932a3.842,3.842,0,0,0-1.34,1.5c-.056.128-.117.254-.167.385a6.185,6.185,0,0,0-.223.821c-.01.042-.06.1-.029.126s.037-.067.055-.1c.323-.368.259-.387.7-.56a.529.529,0,0,1,.171-.024c.007,0,.02.016.013.016a5.738,5.738,0,0,1-.6-.03c-.535-.049-1.068-.1-1.6-.189-.161-.026-.321-.061-.483-.086-.062-.009-.182-.079-.187-.016-.009.1.11.179.166.268.194.677.085.235.046.2-.016-.014-.038.044-.04.033-.012-.055.034-.109-.007-.056a1.466,1.466,0,0,1-1.413.8,1.41,1.41,0,0,1-.409-.1l.043.016c.2.083.4.134.6.208a2.68,2.68,0,0,1,.492.234c.262.163.509.349.776.5.189.1.378.2.57.293.024.017.092.073.077.047a.961.961,0,0,1-.148-.79c.056-.139.268-.526.473-.441a1.7,1.7,0,0,1-.276.071,8.278,8.278,0,0,1-1.142-.05c.009.188-.013-.133.341.325a1.233,1.233,0,0,1,.18,1.2c-.012.032.023-.065.035-.1a5.522,5.522,0,0,1,.545-.958c.075-.186.285-.367.225-.557a4.95,4.95,0,0,0-.97-1.78c-.2-.225-.938-.1-1.215.006-.111.041-.213.1-.319.154a3.726,3.726,0,0,0-.925.924,7.775,7.775,0,0,0-.932,1.47A2.392,2.392,0,0,0-208.9-.063c0,.161,0,.322,0,.483a8.541,8.541,0,0,0,.068,1.212,3.085,3.085,0,0,0,.069.311,1.775,1.775,0,0,0,1.514,1.319,4.647,4.647,0,0,0,.987.063c.207-.014.417-.029.621-.063-.077-.018-.1-.023.077.005.509.077,1.014.18,1.521.272,1.932.371,3.864.753,5.821.972.214.025.427.065.643.075.021,0-.045-.025-.043-.046.115-1,.288-1.987.391-2.985,0-.028-.056.008-.084.01-.091.007-.183.011-.274.016l-.347.016c-1.251.04-2.5.014-3.755.05-1.807.028-3.615.07-5.422.05.148.055.431.007.445.165.23,2.592-1.072,3.2.311,2.6a3.347,3.347,0,0,0,.547-.312c.006-.005-.014,0-.021.006a1.668,1.668,0,0,1,.166-.08c.209-.069.43-.092.642-.146a12.564,12.564,0,0,1,1.319-.2c.511-.055,1.024-.08,1.538-.091,1.008.02,2.015.061,3.02.141q2.07.162,4.139.331c1.145.109,2.28.33,3.433.36.994.051,1.989.063,2.981.133a9.337,9.337,0,0,0,2.355-.054,7.661,7.661,0,0,0,.787-.2c.009,0,.279-.087.29-.092s-.044.008-.065.013-.081.009-.061.006c.266-.04.535-.068.8-.133A3.917,3.917,0,0,0-184.044,4a2.373,2.373,0,0,0,.828-.7c.119-.125.24-.248.362-.37.19-.19.168-.151-.39.05a3.25,3.25,0,0,1-1.042-.295c-.64-.455-.484-.634-.556-1.118-.041-.277.047.724,0,.46V3.372a1.548,1.548,0,1,0,3.092,0Z" fill="#fff" stroke="rgba(0,0,0,0)" stroke-width="1.4"/>
    <path id="path1903" d="M-204.816,38.671h-1.239c-.018,0-.071,0-.053,0,.252.05.506.084.757.139a.3.3,0,0,1,.118.051c.651.493.621.4.895.891.044.126-.01-.336-.011-.358a5.352,5.352,0,0,0-.161-1.36,5.257,5.257,0,0,0-.76-1.617c-.948-1.546-2.136-1.389-3.6-.424-.431.285-.469.945-.525,1.41-.021.522-.014,1.045-.013,1.568,0,.475,0,.95,0,1.425-.037.366-.075.732-.1,1.1a3.156,3.156,0,0,0,.148,1.3c.072.173.158.339.237.509a28.721,28.721,0,0,0,3.75-.263c.184-.038.128-.354.167-.537a8.963,8.963,0,0,0,.1-1.028c.022-.414.031-.808.044-1.222.03-1.2.035-2.406.038-3.609q0-1.461,0-2.922,0-1.257,0-2.513c0-.673,0-1.345-.017-2.018-.077-1.2-.144-2.4-.257-3.591-.054-.541-.1-1.083-.119-1.627a10.71,10.71,0,0,0-.1-1.3,11.385,11.385,0,0,1-.153-1.137c-.049-.434-.109-.865-.135-1.3a6.984,6.984,0,0,1-.01-.931c.027-.29.1-.561.157-.855,0,.009,0,.035,0,.027a3.688,3.688,0,0,0,.191-.9c0,.013-.005.049,0,.038.056-.166.087-.342.148-.508a4.771,4.771,0,0,0,.267-1.243c.028-.328.027-.658.027-.987q0-.61,0-1.219a8.4,8.4,0,0,1,.164-1.107,28.035,28.035,0,0,0,.039-3.767c-.021-.731-.05-1.461-.066-2.192-.006-.318-.006-.637-.006-.955q0-.563,0-1.127a10.8,10.8,0,0,1,.074-1.218c.046-.48.142-.954.219-1.429a4.007,4.007,0,0,1,.133-.672,4.623,4.623,0,0,0,.1-.976,3.147,3.147,0,0,0-.563-1.725c.145.26-.083-.207-.1-.254-.122-.3.027.091.017.022-.013-.1-.03-.191-.044-.287a4.18,4.18,0,0,1-.1-.636c-.008-.152-.007-.3-.007-.457s0-.326,0-.489A2.546,2.546,0,0,0-205.89-5.4c.174.187-.031-.045-.064-.083-.152-.176-.02-.027-.435-.4,1.109.871.735,1.8.048,3.219-.13.268-.6.368-.909.442.371-.01.743-.01,1.114-.011a14.02,14.02,0,0,0,2.214-.114,13.044,13.044,0,0,1,1.558-.139,12.043,12.043,0,0,1,1.415.017c.462.031.92.088,1.379.142.712.075,1.429.083,2.145.092.2.022.728-.041.909.114.009.008-.014.019-.021.029l.109.09a3.323,3.323,0,0,1,.578.709,2.4,2.4,0,0,0,2.208,1.261c.382.026.721-.258,1.081-.387a4.622,4.622,0,0,0,1.291-1.744c.163-.288.342-.566.484-.87.06-.235.144-.466.181-.706a2.577,2.577,0,0,0-.739-1.931,3.08,3.08,0,0,0-1.867-.714c-.632-.067-1.268-.089-1.9-.1a3.032,3.032,0,0,0-1.558.319c-.533.456-1.23.869-1.133,1.764a3.883,3.883,0,0,0,.794,1.841,2.355,2.355,0,0,0,1.586.531,5.969,5.969,0,0,0,.635-.057c.659-.124,1.3-.328,1.961-.442a8.819,8.819,0,0,1,1.239-.1,5.832,5.832,0,0,0,1.718-.2c.438-.117.856-.3,1.29-.429.037-.011.15-.041.112-.032a1.518,1.518,0,0,1-1.62-.336,4.3,4.3,0,0,1-.833-1.778c-.054-.174.075-.357.113-.535a3.6,3.6,0,0,0-.488,2.294,5.534,5.534,0,0,0,.208.716,5.776,5.776,0,0,0,.468.727,2.651,2.651,0,0,0,1.715.87,3.3,3.3,0,0,0,1.764-.362,4.669,4.669,0,0,0,1.516-1.2c.385-.4-.255.241.238-.25.017-.017.073-.059.057-.042s-.046.041-.069.062a1.061,1.061,0,0,1-.541.215l-.027,0s0,0,0,0a2.923,2.923,0,0,0,1.058-.206c.319-.163.512-.245.778-.367.318-.128-.036,0-.119.024-.046.009-.092.015-.138.02.263-.009.49.12-.535-.1-.041-.009-.47-.2,0,.006.449.139.428.326-.445-.308a2.158,2.158,0,0,1-.569-.854c-.326.066.025-.316-.087-.382,0,0,0,.068,0,.252s0,.5,0,.679c.017,1.143-.043,2.285-.081,3.427-.031.93-.046,1.86-.053,2.791-.046.364-.037.739-.105,1.1a10.883,10.883,0,0,0-.146,1.529c-.018.613-.017,1.227-.017,1.84a35.079,35.079,0,0,0,.286,3.958q.17,1.608.233,3.225c.017.5.017,1,.016,1.494,0,.55-.007,1.1.016,1.648q.071,1.075.1,2.151c.014.648.014,1.3.015,1.944-.03.529-.079,1.057-.161,1.58-.115.816-.218,1.633-.321,2.451-.117,1.021-.154,2.047-.174,3.074,0,.761,0,1.52-.064,2.278-.07.732-.067,1.469-.073,2.2-.006,1.008-.005,2.016-.005,3.024q0,1.087,0,2.175a7.983,7.983,0,0,1-.05,1.2c-.047.469-.121.934-.166,1.4a12.207,12.207,0,0,0-.154,1.245,13.951,13.951,0,0,0-.008,1.6c.024.272.079.539.116.808l0-.015c.045.187.074.378.133.561a3.557,3.557,0,0,0,.158.344c.008.019-.04-.074-.03-.055l.144.272c.117.164.581.976.764.936a18.463,18.463,0,0,0,3.41-1.522c-.009-.224-.006-.449-.027-.672a6.22,6.22,0,0,0-.2-.86c-.122-.445-.264-.879-.418-1.314a14.5,14.5,0,0,0-1.4-2.875,5.182,5.182,0,0,0-2.277-2.02c-.2-.088-.417-.149-.626-.224a4.085,4.085,0,0,0-2.927.226,7.462,7.462,0,0,0-1.025.595c-.354.2-.692.562-1.125.56-.935.084-1.877.07-2.815.072-1.361-.022-2.721.034-4.081.074-.852-.012-1.711.091-2.562.034.02,0-.067-.03-.048-.027a1.266,1.266,0,0,1,.673.366c.005,0,.008.009.014.008.031,0-.025-.058-.039-.086s-.039-.076-.06-.114c-.162-.3-.063-.1-.152-.28a3.061,3.061,0,0,0-1.473-1.425c-.125-.057-.258-.095-.387-.142-1.936-.484.686.382.822,3.236.04.827-2.044.836-.931.8a56.445,56.445,0,0,1,6.93.186c1.42.133,2.836.294,4.26.375.576.025.293.015.848.031a2.129,2.129,0,1,0,.122-4.248h0c-.477-.013-.233,0-.731-.026-1.389-.077-2.771-.244-4.157-.368a60.931,60.931,0,0,0-7.474-.2c-.64.036-2.221.039-2.266.893-.066,1.258,2.623,3.827,1.3,3.369a1.223,1.223,0,0,1-.428-.268c-.08-.089-.154-.182-.225-.277-.016-.022-.054-.1-.037-.074a.637.637,0,0,1,.052.093,7.527,7.527,0,0,0,.752,1.243c.113.12.217.25.339.361a3.47,3.47,0,0,0,2.1.814c.96.036,1.921-.017,2.881-.032,1.321-.039,2.642-.095,3.965-.072a26.45,26.45,0,0,0,3.586-.144c.211-.045.425-.08.633-.136a6.887,6.887,0,0,0,2.024-1.034l.229-.154c.256-.171.153-.036.107-.125-.005-.009.01-.026,0-.031-.052-.029-.156,0-.167-.061s.107.017.16.026.124.041.188.039c.013,0,0-.043.012-.037a1.52,1.52,0,0,1,.42.466,9.93,9.93,0,0,1,.994,2.036c.125.343.226.687.329,1.036.016.055.036.109.052.164.01.032.019.13.025.1a2.841,2.841,0,0,0,.016-.341c3.933-1.612,2.534-2.293,3.914-.791.027.029-.039-.068-.059-.1-.06-.1-.142-.235-.209-.324a1.11,1.11,0,0,0,.067.11c.026.054.05.109.079.162,0,.007-.139-.31-.119-.249.236.72-.022-.378.2.7.012.047-.011-.1-.016-.146-.026-.187-.055-.375-.089-.561-.042-.073-.009-.01-.008-.217,0-.25.005-.5.018-.751.025-.388.1-.769.147-1.154.042-.461.123-.916.163-1.377a12.16,12.16,0,0,0,.07-1.619q0-1.087,0-2.175c0-1,0-1.993.005-2.989.005-.633,0-1.268.06-1.9.067-.844.078-1.689.077-2.535.017-.878.046-1.756.142-2.629.1-.781.2-1.562.305-2.341a19.037,19.037,0,0,0,.209-2.221c0-.685,0-1.37-.017-2.055q-.031-1.12-.1-2.238c-.028-.479-.005-.959-.011-1.438,0-.556,0-1.113-.02-1.669q-.07-1.747-.252-3.487a31.836,31.836,0,0,1-.264-3.525c0-.558,0-1.116.014-1.673a6.942,6.942,0,0,1,.106-1.094c.074-.555.12-1.114.149-1.673.007-.894.021-1.789.05-2.683.039-1.189.1-2.377.083-3.567a7.041,7.041,0,0,0-.125-1.866,6.149,6.149,0,0,0-.3-.617,2.623,2.623,0,0,0-1.107-.834c.027.013.108.05.08.039a2.667,2.667,0,0,0-1.154-.26,3.536,3.536,0,0,0-.635.05,3.777,3.777,0,0,0-1.007.351c.474-.179-.858.356-.472.229a1.715,1.715,0,0,1,.63-.1.624.624,0,0,0-.091,0c-.134,0-.268,0-.4.016a3.422,3.422,0,0,0-1.486.539,5.906,5.906,0,0,0-.965.892l-.1.121c.005.018.06-.042.047-.029-.155.151-.074.033,0,.036-.055.052-.009,0,.118,0a1.412,1.412,0,0,1,.377.026A1.6,1.6,0,0,1-187.138-4.5a1.205,1.205,0,0,1-.059.878c-.176.294.369-.862.255-.56.084-.28.309-.553.252-.84A4.146,4.146,0,0,0-187.5-7a2.3,2.3,0,0,0-2.352-.314c-.392.125-.775.274-1.169.393-.006,0-.017.007-.017.015s.021.006.016.009c-.1.065-.544-.026-.683.015a12.922,12.922,0,0,0-1.882.169c-.606.114-1.206.258-1.8.416,1.162.159,1.712.97,1.824,2.246.074.842-.56,1.2-1.068,1.614a2.089,2.089,0,0,1-.837.2c-.269.03.534-.044.293,0,.473.007.946.022,1.417.063.039,0,.127.044.116.006s-.092-.038-.133-.066c-.16-.108-.365-.178-.47-.341a2.488,2.488,0,0,1-.576-1.652c.037-.187.108-.365.163-.548a.773.773,0,0,1,.048-.075c-.132.229-.292.443-.4.684-.1.189-.094.177-.2.364-.143.262-.109.175-.014.095s.224-.18.337-.269c.317-.1.62-.337.95-.3a2.429,2.429,0,0,1,1.685.721c.044.057.075.123.12.178.073.089-.3-.441-.185-.292A7.033,7.033,0,0,0-194.1-5.56c-.183-.114-.359-.243-.55-.343a5.614,5.614,0,0,0-2.727-.585c-.57-.007-1.14-.01-1.708-.064-.5-.058-1-.119-1.506-.154a16.16,16.16,0,0,0-1.936-.029,17.142,17.142,0,0,0-1.932.17,10.006,10.006,0,0,1-1.687.08c-.526,0-1.054,0-1.579.037-.409.064-1.127.136-1.332.511-.933,1.7-1.041,2.492.166,3.49-.7-.657-.112-.1,0,.059-.491-.7-.374-.431-.515-1.29,0-.019,0,.038,0,.057q0,.252,0,.5c0,.267,0,.534.021.8a7.234,7.234,0,0,0,.14.988c.039.151-.019-.082.046.332a3.513,3.513,0,0,0,.288.955,7.835,7.835,0,0,0,.414.829c.023.035.083.146.069.106a1.5,1.5,0,0,0-.1-.2c-.012-.022.038.094.032.069A1.645,1.645,0,0,1-208.6.111c0,.145.009.08,0,.139a8.522,8.522,0,0,0-.183.932c-.1.592-.212,1.181-.261,1.78a14.186,14.186,0,0,0-.087,1.544q0,.564,0,1.128c0,.35,0,.7.007,1.049.016.74.045,1.479.066,2.219.028,1,.072,2,.008,3.006-.026.209-.081.413-.114.622a8.566,8.566,0,0,0-.1,1.13q0,.608,0,1.216c0,.194,0,.388-.008.582a.761.761,0,0,1-.087.361,8.344,8.344,0,0,0-.315,1.24c0,.006.012-.018.011-.013-.044.229-.142.446-.172.679a10.319,10.319,0,0,0-.208,1.266,13.316,13.316,0,0,0,.006,1.5c.027.445.07.889.137,1.33a8.688,8.688,0,0,0,.164,1.271,7.3,7.3,0,0,1,.08,1.029c.022.629.072,1.255.135,1.881.1,1.107.165,2.217.24,3.326.021.628.014,1.256.015,1.885q0,1.257,0,2.514,0,1.455,0,2.909c0,1.164-.008,2.328-.037,3.492-.01.345-.02.727-.037,1.073-.006.116-.019.231-.022.347,0,.014.006.054.012.041.048-.1.007-.3.117-.312,1.233-.167,2.484-.14,3.726-.21a1.407,1.407,0,0,1,.234.867c0,.04.005-.08.008-.12.035-.473.1-.943.114-1.417s0-.956,0-1.433c0-.412,0-.823,0-1.235a2.127,2.127,0,0,1-2.583,1.68c-.524-.044-.836-.638-1.265-.941-.06-.043.208.265.116.188.076.122.159.251.237.354a.815.815,0,0,0,.036.15c.011.024.005-.107.007-.08.009.185,0,.372.013.557a5.989,5.989,0,0,0,.272,1.6c.079.172.151.348.238.516a2.311,2.311,0,0,0,2.028,1.169h1.239a2.129,2.129,0,1,0,0-4.25Z" fill="#fff" stroke="rgba(0,0,0,0)" stroke-width="1.4"/>
    <path id="path1905" d="M-189.444,36.471c-.219.077-.444.139-.656.232-.313.137-.928.509-1.213.681-.68.409-1.349.833-2.017,1.261-1.437.965-2.934,1.833-4.435,2.692a17.816,17.816,0,0,0-2.632,1.731c-.474.365-.9.782-1.4,1.116a5.964,5.964,0,0,1-1.011.491c-.239.046-.469.128-.7.193-.022.006.042-.023.065-.023.283-.007.566,0,.849,0,.529.8,1.113,1.567,1.588,2.4.046.081-.095.183-.065.271.019.056.074-.093.109-.141.083-.116.161-.236.244-.352.187-.258.373-.489.57-.739.283-.436.69-.8.951-1.248a1.61,1.61,0,0,0,.287-.563,12.567,12.567,0,0,0-.019-1.65,10.459,10.459,0,0,0-1.6-1.34,1.668,1.668,0,0,0-.934-.033,6.048,6.048,0,0,0-1.976.746,16.958,16.958,0,0,0-1.838,1.235c-.064.049-.13.1-.193.148-.226.184-.439.386-.669.564-.017.013.03-.031.045-.046s.07-.05.051-.041c-.084.039-.161.092-.244.132-.02.01-.039.028-.061.029s.054-.028.155-.068a4.547,4.547,0,0,0-.5.153,1.14,1.14,0,0,1,.111-.031c-.166.06-.335.112-.5.171a2.906,2.906,0,0,0-.652.388l.027-.022-.052.028c1.137-.589.518.055,3,1.474-.285.715-.593,1.422-.855,2.146-.011.03.059-.023.089-.035.108-.041.215-.084.324-.124.191-.069.381-.139.574-.2.434-.143.966-.29,1.4-.414a34.367,34.367,0,0,1,3.566-.728c.576-.074,1.145-.194,1.72-.28a3.254,3.254,0,0,1,.482-.037c.4-.036,1.166.145-.366-.164a5.861,5.861,0,0,1-.65-.465,1.777,1.777,0,0,1-.467-1.49,4.092,4.092,0,0,1,.147-.5c-.049.045-.081.107-.13.152-.014.013.028-.028.032-.047s-.01,0-.1.083a5.668,5.668,0,0,0-.779.815c-.078.137-.164.27-.233.412a2.241,2.241,0,0,0-.131,1.651,7.214,7.214,0,0,0,.825,1.161c.241.118.473.257.723.353a2.269,2.269,0,0,0,.437.1,4.886,4.886,0,0,0,1.706-.083,19.622,19.622,0,0,0,2.293-.768c.645-.232,1.287-.471,1.921-.733a4.443,4.443,0,0,1,1.4-.426c.015,0,.062.006.046.007a1.466,1.466,0,0,1-1.341-.731,1.739,1.739,0,0,1-.192-.722c-.086.11-.111.349.006-.006.011-.034-.076.123-.055.094.239-.335.034-.084.205-.288.018-.018.06-.08.055-.055-.561,2.549-1.318,2.254,1.029,3.7.333.206,1.351-.053,1.723-.153.512-.145.988-.39,1.5-.544a1.893,1.893,0,0,1,.571-.142c.019,0,.179-.009.183-.007.03.012-.064.01-.1.008a1.082,1.082,0,0,1-.5-.12c-.279-.159.062.045-.4-.306-.052-.039.173.194.133.143-.212-.266-.193-.24-.131-.146a3.866,3.866,0,0,0,1.7,1.215,5.036,5.036,0,0,0,1.436.262,2.6,2.6,0,0,0,2.052-.708,2.546,2.546,0,0,0,.285-.327,6.035,6.035,0,0,0,.786-1.5,3.8,3.8,0,0,0,.2-1.1c0-.13,0-.26,0-.391,0-.171,0-.342,0-.513q0-.186,0-.371a2.129,2.129,0,1,0-4.25,0h0q0,.187,0,.374,0,.273,0,.547c0,.057,0,.168,0,.2a.487.487,0,0,1,.039-.158c.046-.065-.208.418-.111.267a1.757,1.757,0,0,1,1.349-.576c.043,0-.157,0-.13,0-.013,0-.221-.019-.157,0,.028.016.057.03.085.048.005,0-.013,0-.018-.005a.522.522,0,0,0-.11-.066c-.028-.007.046.036.069.055.122.106.125.339.31.373A3.377,3.377,0,0,0-185.649,44c-.145-.068-.287-.143-.435-.2a3.463,3.463,0,0,0-1.658-.179,5.777,5.777,0,0,0-1.382.31c-.478.151-.938.345-1.408.517-.268.1.272-.014.422.1.512.387,1.274.677,1.419,1.3.343,1.482-1.241,2.916-.438,2.164a3.74,3.74,0,0,0,.756-1.2,3.494,3.494,0,0,0,.045-2.759,2.594,2.594,0,0,0-.88-1.074,3.208,3.208,0,0,0-2.3-.494,8.589,8.589,0,0,0-2.366.7c-.592.249-1.2.464-1.8.684-.527.2-1.056.4-1.593.569-.29.071-.2.035-.039.112.18.089.352.194.527.291a6.778,6.778,0,0,1,.719,1.083,1.732,1.732,0,0,1-.277,1.583c-.044.054-.4.357-.189.189.092-.073.364-.291.259-.239a5.192,5.192,0,0,0,1.06-1.175,2.573,2.573,0,0,0,.286-2.485,1.928,1.928,0,0,0-.372-.595,6.426,6.426,0,0,0-.756-.585,4.179,4.179,0,0,0-1.506-.228,7.723,7.723,0,0,0-1.042.086c-.59.093-1.176.209-1.769.288a38.087,38.087,0,0,0-4.041.835c-.808.232-1.616.461-2.4.764-.214.083-.427.169-.635.265-.147.068-.346.087-.429.226a25.087,25.087,0,0,0-1.067,2.278c2.5,1.458,2.159,2.168,3.711,1.131a1.1,1.1,0,0,1-.152.076c-.018.009.076-.032.056-.026a3.762,3.762,0,0,0-.394.122c-.073.03.154-.037.231-.056.12-.036.238-.073.355-.116a1.3,1.3,0,0,0-.14.033l.212-.049a5.782,5.782,0,0,0,1.343-.628c.355-.258.687-.542,1.027-.818.383-.3.8-.569,1.209-.833.132-.07.261-.146.4-.208.065-.029.169-.015.2-.08.023-.049-.108.007-.162,0-1.087-.115-.563-.112-1.865-1.35.067-1.771-.2-.994.226-1.732.022-.038-.048.075-.074.111-.24.321-.5.628-.737.949-.351.448-.7.894-1.016,1.37a5.662,5.662,0,0,0-.343.54c-.119.233-.389.479-.3.725a18,18,0,0,0,1.525,2.676c.339.014.677.051,1.016.043a7.121,7.121,0,0,0,.973-.258c.144-.044.285-.094.428-.141a9.982,9.982,0,0,0,1.794-.909c.562-.382,1.072-.822,1.593-1.257a13.69,13.69,0,0,1,2.164-1.42c1.564-.9,3.123-1.8,4.621-2.8q.94-.6,1.894-1.186c.161-.1.323-.193.484-.29.076-.046.194-.055.228-.137.024-.057-.122.019-.183.029a2.129,2.129,0,1,0-.833-4.167Z" fill="#fff" stroke="rgba(0,0,0,0)" stroke-width="1.4"/>
    <path id="path1831" d="M-175.1,48.562c-.263-.09-.344-.43-.281-1.181.05-.6.068-1.8.051-3.353l-.013-1.207h-.778c-.428,0-1.295.038-1.926.085s-1.429.095-1.773.106l-.625.021.019.847c.01.466.045,1.423.076,2.127.07,1.556.04,2.064-.123,2.064a.132.132,0,0,0-.118.141c0,.078-.025.116-.056.085s-.105-.014-.166.036c-.082.068-.172.05-.346-.068a.9.9,0,0,0-.544-.139c-.6.041-.59.118-.673-3.713-.116-5.335-.14-5.578-.6-6.048-.521-.537.2-.512-13-.46-11.881.047-12.037.049-12.225.217-.44.392-.462.555-.477,3.514-.008,1.513.011,3.2.042,3.751a3.46,3.46,0,0,1-.038,1.185,4.04,4.04,0,0,0-.207.63c-.065.258-.138.4-.174.344s-.094-.075-.174-.01a1.113,1.113,0,0,1-.438.127c-.53.059-.577-.084-.657-2.032-.038-.917-.092-1.868-.12-2.112l-.051-.445-2.3,0-2.3,0,0,1.38a4.449,4.449,0,0,1-.1,1.51.459.459,0,0,0-.092.289.9.9,0,0,1-.248.787c-.208.249-.269.275-.508.223-.151-.033-.272-.113-.272-.18s-.034-.12-.075-.12c-.126,0-.274-.745-.4-2.032-.112-1.118-.277-8.086-.229-9.737.092-3.207.117-14.557.037-16.891-.052-1.537-.12-7.332-.15-12.878-.045-8.347-.034-10.2.062-10.737.1-.58.135-.648.281-.61a.5.5,0,0,0,.315-.037c.218-.117.355-.03.514.325a5.732,5.732,0,0,1,.119,2.092c-.012.978,0,1.887.02,2.02l.042.242,2.252-.054c1.239-.03,2.514-.076,2.835-.1l.583-.048-.056-.775c-.031-.427-.1-1.29-.148-1.918-.145-1.792-.123-1.891.442-1.981.3-.048.381-.026.55.143.583.583.86,2.373.953,6.16.064,2.612.06,2.593.7,3.019.312.207.457.236,1.5.306,1.019.068,13.866.108,19.867.061,2.373-.019,3.038-.107,3.419-.454.434-.4.434-.39.434-5.378,0-5.211-.046-4.856.63-4.9a.582.582,0,0,1,.586.219c.26.271.288.464.486,3.362l.1,1.53,2.58-.025c1.419-.013,2.6-.045,2.626-.071a8.818,8.818,0,0,0-.067-1.294c-.062-.686-.129-1.732-.149-2.324-.036-1.055-.032-1.081.173-1.286a.423.423,0,0,1,.378-.165.218.218,0,0,0,.224-.044c.073-.118.3-.024.3.123,0,.064.095.14.21.169a1.136,1.136,0,0,1,.583.839c.027.14.093,1.073.147,2.074.12,2.224.109,7.182-.031,13.547-.2,9.151-.114,22.4.2,31.03.238,6.456.235,6.826-.053,7.036a.362.362,0,0,1-.26.086c-.088-.034-.295.3-.413.658-.029.088-.077.136-.107.106s-.115,0-.189.06a.546.546,0,0,1-.61.124Zm-35.423-8.3c0-.57-.03-2.123-.065-3.45s-.064-2.843-.063-3.368c0-.8-.02-.963-.136-1.008a13.723,13.723,0,0,0-1.714.054c-.867.059-1.837.112-2.156.119l-.579.012.011,2.963c.01,2.656.036,4.549.075,5.492l.014.328,2.307-.052,2.307-.052V40.26Zm32.385.957a4.661,4.661,0,0,1,1.276-.077,12.253,12.253,0,0,0,1.314-.034c.042-.042-.092-3.491-.221-5.693-.046-.792-.084-1.7-.083-2.008v-.568l-2.35,0a22.307,22.307,0,0,0-2.468.073c-.1.062-.109.372-.063,1.8.03.948.078,2.5.107,3.459s.063,1.831.075,1.947.027.431.032.7l.01.487h1.185a4.089,4.089,0,0,0,1.185-.081Zm-12.636-5.042c7.52-.045,6.906.017,7.649-.777.636-.68.607.029.6-14.886-.008-14.738.023-13.993-.593-14.633a3,3,0,0,0-.643-.5c-.362-.187-.046-.186-11.014-.02-2.333.035-4.325.011-6.788-.084-4.428-.171-6.008-.174-6.389-.015a1.146,1.146,0,0,0-.455.4c-.166.277-.169.438-.175,8.876,0,4.727-.032,10.061-.065,11.853s-.076,4.46-.1,5.927l-.037,2.667.287.393a1.345,1.345,0,0,0,.652.526,40.382,40.382,0,0,0,7.308.341c1.723-.019,6.114-.053,9.759-.075Zm14.871-5.334c.025-.14.051-2.235.058-4.657l.013-4.4-2.4.023c-1.321.013-2.45.04-2.508.061a29.412,29.412,0,0,0-.106,4.659v4.62l2.45-.024,2.45-.024Zm-34.746-1.935c0-1.031.018-2.218.038-2.637s.061-1.482.093-2.362l.057-1.6-1.3.054c-.715.03-1.8.079-2.407.109l-1.106.055.005,4.14.005,4.14,2.307-.011,2.307-.011,0-1.875Zm.253-8.239c.064-.069.125-5.069.1-8.062l-.013-1.472-2.561.062c-1.409.034-2.573.073-2.587.086-.034.032-.057,4.9-.034,7.479l.018,2.059,2.507-.04A25.063,25.063,0,0,0-210.4,20.667Zm32.554-.582c.838-.026,1.648-.067,1.8-.09l.275-.042V10.648h-4.885l-.055,1.08c-.03.594-.055,2.752-.055,4.8v3.716l.7-.053c.384-.029,1.384-.074,2.223-.1ZM-210.4,9.4c.023-.021.042-2.1.042-4.63V.181l-1.9.034c-1.048.019-2.237.059-2.643.09l-.738.055-.021,3.895c-.011,2.142.01,4.21.048,4.595l.069.7,2.552-.054c1.4-.03,2.571-.072,2.595-.093Zm31.9-.457c1.013,0,2.039-.02,2.279-.046l.437-.047.046-.774c.026-.426.087-2.26.137-4.076s.114-3.565.143-3.886l.053-.584-2.024.064c-1.113.035-2.289.069-2.613.076l-.589.012.036.466a46.1,46.1,0,0,1-.14,5.315c-.028.339-.023,1.283.011,2.1.058,1.4.071,1.479.221,1.431.088-.028.988-.05,2-.049Z"/>
  </g>
</svg>
