<svg xmlns="http://www.w3.org/2000/svg" width="41.464" height="55.28" viewBox="0 0 41.464 55.28"><g transform="translate(156.782 17.042)"><path d="M-147.982-2.446a3.853,3.853,0,0,1-.769-.67,1.687,1.687,0,0,1-.3-.726,2.259,2.259,0,0,1-.014-.4,8.941,8.941,0,0,0-.016-.925,8.577,8.577,0,0,0-.153-.925,3.724,3.724,0,0,0-.289-.866c-.027-.051-.054-.1-.083-.153s-.091-.153-.12-.194c-.041-.058-.159-.233-.126-.17.049.094.181.16.176.266-.029.685-.182,1.36-.273,2.04l-.752.474c-.037.011-.111-.006-.11.032s.074,0,.111,0c.21-.005.411,0,.62.014a3.416,3.416,0,0,1,.653.136l.1.027a.407.407,0,0,1-.133-.042,1.846,1.846,0,0,1-.329-.219,5.6,5.6,0,0,1-.411-.534c-.093-.076-.123-.615-.123-.251q0,.386,0,.771a5.063,5.063,0,0,0,.172,1.332,5.089,5.089,0,0,0,.388,1.014c.1.135.2.279.311.4a2,2,0,0,0,1.286.61c.161.011.324,0,.485-.006a5.256,5.256,0,0,0,1.438-.528c1.176-.7-.156-.035-2.332-2.422-.044-.049.376-.549.109-.224l-.077.094c-.016.019.026-.044.046-.058.211-.148.4-.5.644-.428,1.785.524,2.575.654,2.367,2.015.177-.463.361-.924.528-1.391.141-.461.314-.911.46-1.369.111-.349.189-.706.272-1.062a7.283,7.283,0,0,0,.149-.9c0-.189.1-.6-.051.192-.005.027-.046.062-.025.079s.025-.046.037-.069l.055-.1a3.262,3.262,0,0,0,.385-1.225,3.148,3.148,0,0,0,0-.336c.066-.291-.236-.71-.251-.937.007-.054-.017-.107-.009-.161,0-.015-.006.048.01.045s.01-.074.018-.146c-.013.15.075-.216.081-.237a3.155,3.155,0,0,0,.094-.853c-.013-.853.232-.694-.968,1.31-.584-.018-1.168-.015-1.751-.054-.043,0-.135-.106-.108-.072.051.065.319.249.405.323.241.215.5.4.746.615.217.179.453.373.662.532a2.638,2.638,0,0,0,1.269.567c.062.007.124.015.186.02.091.008.193.01.285.012a1.69,1.69,0,0,0,.194,0c-.063-.005-.127-.005-.191-.008a6.011,6.011,0,0,0,.712.094c.029,0,.116.012.087.007-.117-.024-.238-.029-.353-.061a1.709,1.709,0,0,1-.961-.773,2.665,2.665,0,0,1-.193-.511c-.005-.187-.013-.375-.014-.562,0-.065.1-.222.038-.191s-.056.1-.09.145a1.421,1.421,0,0,1-.164.156c-.3.237-.623.436-.936.652s-.605.443-.894.682c.02.089-.192.08-.189.163,0,.036.057-.045.082-.07.01-.01-.024.016-.036.024-.1.072-.109.078-.2.147.092-.075-.371.3-.275.226.045-.033.089-.067.131-.1.014-.012-.032.019-.046.03-.088.067-.174.135-.26.2-.185.171-.35.361-.523.544l-.06.062a1.809,1.809,0,1,0,2.61,2.5h0l.078-.082q.137-.145.271-.292c.012-.013.038-.021.035-.038s-.024.02-.036.03c-.409.291.13-.076.239-.184a5.788,5.788,0,0,0,.49-.38c.206-.174.425-.331.643-.49a9.88,9.88,0,0,0,1.507-1.144A4.924,4.924,0,0,0-140.3-8.953a1.405,1.405,0,0,0,.1-.354c.029-.253.017-.51.026-.765a3.24,3.24,0,0,0-.213-.624,2.01,2.01,0,0,0-1.623-1,3.332,3.332,0,0,1-.468-.065c-.118-.011-.235-.024-.353-.033-.04,0-.079,0-.119,0-.015,0-.06,0-.045,0l.039.007a1.49,1.49,0,0,1,.491.212c.006,0-.014-.013-.019-.009-.181-.142-.361-.284-.552-.44-.265-.233-.546-.442-.813-.672-.146-.122-.293-.242-.445-.356-.08-.06-.141-.165-.239-.179-.607-.084-1.224-.072-1.836-.108-.88,1.445-1,1.046-.992,1.87,0,.253.006-.039.044-.105a5.818,5.818,0,0,0-.2.842,4.41,4.41,0,0,0,.062,1.495c.042.163.3,1.078.158.33a1.642,1.642,0,0,1,.007-.186c.054-.382.1-.343.027-.189a2.8,2.8,0,0,0-.42,1.237,3.4,3.4,0,0,1-.08.473c-.056.256-.111.512-.191.762-.13.417-.295.823-.418,1.243-.16.449-.339.891-.508,1.336-.086.264-.377,1.031-.167,1.229,1.485,1.409,2.264,2.063,3.36.708.119-.146.408-.5.372-.541-1.31-1.679-1.627-3.017-2.68-2.27-.122.067-.754.268-.088.1.109,0,.218,0,.327.011a1.562,1.562,0,0,1,1.12.79c.035.074.094.311.089.229a1.3,1.3,0,0,0-.106-.317c0-.009,0,.02,0,.03a1.548,1.548,0,0,1-.076-.5q0-.4,0-.793a2.99,2.99,0,0,0-.207-1.245,6.3,6.3,0,0,0-.466-.654,2.4,2.4,0,0,0-1.052-.545,7.061,7.061,0,0,0-1.443-.268,9.947,9.947,0,0,0-1-.014,3.579,3.579,0,0,0-.748.089c-.323.144-.617.347-.925.521a19.758,19.758,0,0,0-.33,2.1c-.006.133.144.224.213.338a.6.6,0,0,1-.09-.147c-.014-.036-.027-.072-.041-.107s.037.124.033.092c-.042-.331,0,.112.036.162,0,.015.009.059.012.044a.281.281,0,0,0-.006-.074c.021.158.035.317.063.475a.831.831,0,0,1,0-.1c.011.206-.015.414-.007.619a5.23,5.23,0,0,0,.1,1.226,5.492,5.492,0,0,0,1.125,2.32c.121.131.238.267.364.393a8.566,8.566,0,0,0,1.246.974,1.809,1.809,0,1,0,1.858-3.1Z" fill="#fff" stroke="rgba(0,0,0,0)" stroke-width="1.4"/><path d="M-148.635-4.739c0-.034.012-.134,0-.1a.6.6,0,0,0-.018.149c-.007.069-.013.138-.021.207-.022.179-.054.357-.079.535a3.14,3.14,0,0,1-.088.515,1.809,1.809,0,1,0,3.529.77h0a6.589,6.589,0,0,0,.136-.788c.059-.428.129-.855.152-1.287a1.809,1.809,0,1,0-3.612,0Z" fill="#fff" stroke="rgba(0,0,0,0)" stroke-width="1.4"/><path d="M-149.973-1.284a3.593,3.593,0,0,0-1.022.092c-.14.039-.274.1-.412.148a3.911,3.911,0,0,0-1.013.682c-.121.13-.641.572-.035.07a2.545,2.545,0,0,0-.717.749c-.078.1-.175.28-.239.367.036-.046.09-.082.109-.137a1.937,1.937,0,0,0-.224.247c.315-.3.018-.07.467-.373.049-.022.2-.077.146-.065a2.645,2.645,0,0,0-.28.121l.065-.031.013-.006-.391.19c-.077.055-.153.112-.231.166a1.567,1.567,0,0,1,.184-.129c.007,0,.027-.018.022-.012-.318.412-.641.819-.962,1.228.108.9-.033,1.074.379,1.595l.17.212c.044.055.05.06.015.024a7.858,7.858,0,0,0,.933,1.1,7.478,7.478,0,0,0,1.244.907,5.156,5.156,0,0,0,.82.387c.079.02.265.138.237.061s-.159-.048-.24-.069c-.033-.009.063.027.1.039.065.023.131.045.2.068.029.011-.058-.019-.088-.029.146.057.34.155.581.252a2.118,2.118,0,0,0,1.6.066,3.1,3.1,0,0,0,.994-.838,2.136,2.136,0,0,0,.253-.618,9,9,0,0,0,.157-1.955c0-.3,0-.591,0-.887a1.014,1.014,0,0,1,.042-.292c.005-.026-.007.052-.011.078,0,0,0,.019,0,.015a3.866,3.866,0,0,0,.141-.558c.007-.053.016-.1.022-.157s.01-.116.015-.181c0-.005,0,.011,0,.017C-150.5.63-150.137-.514-150.5.7c.4-1.252,1.686-.885,2.928-.5.245.076.256.445.384.668.055.289.042.157.04.037a1.809,1.809,0,1,0-3.611.07h0a3.664,3.664,0,0,0,.094.873c.138.258.138.678.414.775a5.908,5.908,0,0,0,2.46.243c.3-.026.647-.839.751-1.128.388-1.3-3.766.108-3.491-.792.056-.136-.135.368-.081.278a4.749,4.749,0,0,0-.146,1.137c0,.277,0,.554,0,.831,0,.225,0,.45-.013.675a2.817,2.817,0,0,0-.018.325c0,.007.011-.01.017-.014a1.041,1.041,0,0,1,.162-.3c.432-.4,1.127-1.011,1.755-.672-.137-.05-.337-.165-.491-.216l-.213-.081.087.034a.884.884,0,0,0-.115-.047c-.114-.038-.229-.072-.343-.11-.04-.013.081.024.121.036l.047.019c.322.149-.307-.135-.145-.078a5.942,5.942,0,0,1-.552-.373,3.853,3.853,0,0,1-.5-.577,4.065,4.065,0,0,0-.25-.329c-.024-.023.077.108.057.082-.033-.045-.121-.188-.1-.137.375.843.023-.922.27,1.425-.317.4-.643.784-.952,1.186-.016.02.046-.023.069-.035l.087-.048a2.217,2.217,0,0,0,.3-.2c.048-.045-.108.074-.162.11-.1.046-.2.087-.3.137-.037.019.079-.027.118-.042.62-.245-.439.157.361-.154.133-.083.273-.156.4-.25a4.867,4.867,0,0,0,.556-.584c.132-.184.241-.37.352-.53.014-.022.06-.086.043-.066a1.284,1.284,0,0,1-.4.384,4.632,4.632,0,0,0,.486-.411.7.7,0,0,0,.085-.076c.008-.011-.026.013-.04.013s.008-.006.011-.009c-.063.017-.126.039-.19.052a.7.7,0,0,1-.114.01c-.016,0-.064,0-.048,0,.116-.006.232,0,.347,0a1.809,1.809,0,1,0,0-3.612Z" fill="#fff" stroke="rgba(0,0,0,0)" stroke-width="1.4"/><path d="M-148.048,5.09a5.245,5.245,0,0,0-1.135.082,3.605,3.605,0,0,0-1.331.641c.036-.026.145-.106.109-.079-.084.064-.172.122-.254.189a3.873,3.873,0,0,0-.37.376c-.19.241-.377.485-.552.737a3.809,3.809,0,0,0-.5,1.127c-.085.271-.153.547-.233.819-.034.121-.038.129-.069.27-.009.041-.038.164-.025.124s.024-.11.038-.164c.006-.022.031-.087.022-.065-.017.041-.031.083-.047.124.259-.525-.01-.043-.081.085a3.341,3.341,0,0,0-.285.645,1.809,1.809,0,1,0,3.438,1.107h0c-.021.049-.055.131-.043.084a6.735,6.735,0,0,0,.361-.677,4.35,4.35,0,0,0,.156-.516c.069-.239.133-.478.2-.717.021-.065.043-.129.063-.194.009-.03.046-.116.027-.091s-.118.2-.049.088c.091-.136.2-.258.289-.4.015-.023-.05.064-.058.061.042-.045.226-.2.045-.065-.073.055-.427.292.027-.014-.042.027-.185.115-.134.056.024-.028.173-.045,0-.018-.3.006.362-.012.391,0a1.809,1.809,0,1,0,0-3.612Z" fill="#fff" stroke="rgba(0,0,0,0)" stroke-width="1.4"/><path d="M-149.166,8.141a5.569,5.569,0,0,0,.268,1.772A3.946,3.946,0,0,0-148.343,11c-.14-.113.405.411.312.3a1.872,1.872,0,0,0-.315-.323c-.37-.269.323.346.456.445-.356-.345-.354-.279-.561-.718a1.271,1.271,0,0,1-.063-.207c-.007-.025-.017-.1-.017-.077s0,.043,0,.064c0,.153,0,.306,0,.46a1.481,1.481,0,0,1,.922-1.385c.013,0,.04,0,.039-.014s-.033,0-.112,0-.185,0-.278.006c-.176,0-.352,0-.528,0h-.406c.04.007-.112-.006-.085,0,1.161.247.944-.021,1.666,1.817.082.208-.172.58-.284.766a.691.691,0,0,1-.283.208,1.136,1.136,0,0,1-.182.058,1.7,1.7,0,1,0-.6-3.345h0a2.478,2.478,0,0,0-.424.111,2.874,2.874,0,0,0-1.142.821c-.156.23-.558.743-.463,1.036.416,1.274.634,1.931,1.8,1.928h.395c.193,0,.387,0,.58,0a5.516,5.516,0,0,0,1.136-.1c.1-.029.2-.049.3-.086A2.06,2.06,0,0,0-145.2,11.43a3.818,3.818,0,0,0,.069-.477c0-.191,0-.381,0-.572a2.069,2.069,0,0,0-.761-1.711,1.053,1.053,0,0,1,.122.1c.654.713-.5-.5-.051-.052.036.036.067.075.1.113.2.287,0-.02.191.336.106.195-.083-.2-.113-.261l-.025-.055a1.783,1.783,0,0,1-.1-.715,1.7,1.7,0,1,0-3.4,0Z" fill="#fff" stroke="rgba(0,0,0,0)" stroke-width="1.4"/><path d="M-144.7,10.8a1.569,1.569,0,0,1-.759,2.345,1.009,1.009,0,0,1-.561-.042,2.631,2.631,0,0,0,.682.155,1.573,1.573,0,0,1-1.39-1.155,6.128,6.128,0,0,0,.031.644,4.258,4.258,0,0,1,.07.512c.008.171.008.342.008.512.021.229-.068.791.068-.153a6.811,6.811,0,0,1,.391-.657,1.444,1.444,0,0,1,.447-.314,2.7,2.7,0,0,1,.258-.089c.032-.01.127-.038.1-.02-.367.231-.745.442-1.118.664a6.591,6.591,0,0,0-.359.928,5.049,5.049,0,0,0,.243,1.624c.046.316.11.628.176.941,0,0,.026.132.009.06,0,.084,0,.169,0,.253a1.777,1.777,0,0,0,.877,1.623,1.934,1.934,0,0,0,.482.194,3.564,3.564,0,0,0,.842.075,2.029,2.029,0,0,0,1.457-.639c0,.047.149-.2.142-.133,0,.036-.089.04-.078.074s.055-.039.084-.056c.054-.033.111-.063.166-.1.138-.041.313-.206.446-.213s.3-.112.414-.132c-.155.035-.355.1.289-.043.069-.016.135-.043.2-.065.142-.042.005,0-.061.014l.353-.1a2.279,2.279,0,0,0,1.071-.844,2.247,2.247,0,0,0,.419-1.115,4.628,4.628,0,0,0-.05-1.142,2,2,0,0,0-1.342-1.557l.042.014a3.352,3.352,0,0,0-.753-.2c-.118-.013-.145-.018-.254-.025-.037,0-.148-.012-.112-.006.094.016.19.023.285.036l.028.006-.119-.034c.068.023.135.049.2.069.137.039-.124-.06-.159-.075a2.378,2.378,0,0,0-.347-.127,1.118,1.118,0,0,0,.158.054c.039.007-.073-.03-.11-.045a2.661,2.661,0,0,0-.268-.092c-.041-.012-.163-.049-.124-.033.094.039.193.067.289.1-.261-.123-.177-.086-.419-.193.57.262-.521-.268.2.118.037.02-.066-.054-.1-.078-.082-.055-.168-.106-.251-.158-.051-.025-.207-.107-.274-.129a.515.515,0,0,0,.1.046,2.808,2.808,0,0,0-.363-.156l.128.05c.1.048.063.031-.1-.057a1.7,1.7,0,1,0-1.541,3.03h0c-.087-.053-.048-.029.122.067.819.364-.321-.169.347.159.025.012-.163-.08-.074-.04a3.384,3.384,0,0,0,.493.286c-.227-.116.535.234.11.047-.039-.017.167.082.113.057,1.009.388-.2-.077.606.231a1.428,1.428,0,0,1-.156-.065c-.039-.016.075.036.113.054a3.458,3.458,0,0,0,.4.16c.185.039.408.163.592.111,0,0-.007,0-.01,0-.2-.06-.056-.028.067.031a1.506,1.506,0,0,1-.8-.8,1.7,1.7,0,0,1-.067-.23c0-.014.007.028.01.043-.027-.365.012.115,0,.184a2.033,2.033,0,0,1,.227-.607c.01-.019-.043.072-.034.053a2.138,2.138,0,0,1,.363-.3c.072-.047.159-.068.233-.111.045-.026-.1.039-.145.06-.026.012.053-.021.08-.031.652-.16-.139.014-.274.078.237-.067-.061.012.369-.065.034-.006-.069,0-.1.007a2.986,2.986,0,0,0-.455.073c-.242.064-.472.154-.711.224a7.9,7.9,0,0,0-1.039.493,4.336,4.336,0,0,0-.881.634l-.143.133c.631-.366.35-.3,1.042-.4.011,0-.022,0-.034,0-.114,0-.285-.014.007.036a1.483,1.483,0,0,1,1,.824,3.036,3.036,0,0,1,.182.772c.028.114-.036-.2,0-.1,0-.129,0-.257,0-.386a3.458,3.458,0,0,0-.08-.648c-.063-.3-.124-.6-.168-.9-.048-.238-.1-.474-.157-.709-.008-.032-.016-.127-.026-.1a1.262,1.262,0,0,0-.021.253l-.338.753c-.358.2-.728.384-1.073.606-.051.033.121-.016.179-.032a2.011,2.011,0,0,0,.578-.229c.508-.336.394-.34.8-.983a3.82,3.82,0,0,0,.095-.9c0-.245,0-.49-.016-.734a5.284,5.284,0,0,0-.09-.717c0,.037-.029.09,0,.112s0-.074,0-.111c0-.2-.007-.4-.026-.6a1.972,1.972,0,0,0-1.226-1.728,2.633,2.633,0,0,0-.474-.109c.031,0,.348.072.208.043a2.579,2.579,0,0,0-1.46-.062,2.024,2.024,0,0,0-.709.3,1.809,1.809,0,0,0-.8,1.253,2.8,2.8,0,0,0,.113.946,1.451,1.451,0,0,0,.172.33A1.7,1.7,0,1,0-144.7,10.8Z" fill="#fff" stroke="rgba(0,0,0,0)" stroke-width="1.4"/><path d="M-143.6,12.777c.029.007.114.037.088.022-.009-.005-.216-.074-.235-.081s.01,0,.014,0c.048.021.1.042.144.065.021.01.04.024.06.036l.041.029s0,0,0,0c.43.45-.315-.383.033.026.014.021.059.083.044.063l-.213-.283c.017.019.049.083.05.058s-.065-.087-.05-.064.08.106.06.08l-.18-.243-.115-.132c.035.039,0-.007,0-.014a1.7,1.7,0,1,0-2.818,1.9h0a2.993,2.993,0,0,0,.289.38c-.16-.251.038.061.107.147.037.047.14.192.112.14a1.1,1.1,0,0,0-.149-.21c-.039-.045.064.1.1.15a3.546,3.546,0,0,0,.652.692,3.618,3.618,0,0,0,1.148.538,1.7,1.7,0,1,0,.825-3.3Z" fill="#fff" stroke="rgba(0,0,0,0)" stroke-width="1.4"/><path d="M-137.306,17.244a2.394,2.394,0,0,0-.11-1.484c-.337-.595-.1-.251-.461-.674-.039-.046.1.078.122.135.1.277.2.557.307.835-.668,1.548-.176,1.273-1.276,1.764-.083.037-.167.021.015.018.113,0,.227,0,.34,0h.613c.028,0,.113,0,.085,0-.183-.011-.186-.014-.12,0,.027.057-.208-.081-.184-.047.013.018.254.117.157.08a2.385,2.385,0,0,0,.748.33A1.566,1.566,0,0,1-138.225,17q0,.237,0,.474t0,.479q0,.233,0,.467t0,.466a3.144,3.144,0,0,0,.081.828,2.015,2.015,0,0,0,.23.669,6.714,6.714,0,0,0,.708.7,9.359,9.359,0,0,0,1.064.206,1.145,1.145,0,0,0,.424-.094,2.754,2.754,0,0,0,.93-.577,4.328,4.328,0,0,0,.636-.676c.142-.192.239-.414.361-.616a3.025,3.025,0,0,0,.422-1.187,3.662,3.662,0,0,1,.084-.444,2.247,2.247,0,0,0-.2-1.4,2.587,2.587,0,0,0-.789-.876c.038.028.094.041.114.083.224.468.7.921.61,1.431-.108.606-.741.984-1.124,1.466-.013.016-.041.01-.059.021s.058-.009.086-.013a2.609,2.609,0,0,1,.321-.033,2.762,2.762,0,0,0,1.158-.415c.391-.233-.04.007-.074.022a1.248,1.248,0,0,1-.189.057,3.958,3.958,0,0,0,.806-.283.381.381,0,0,0,.1-.054c.025-.026-.064.036-.1.05-.049.021-.2.076-.149.057.129-.05.25-.095.374-.148l.038-.016c-.15.056-.536.22.18-.056.059-.023.112-.056.168-.084a.9.9,0,0,0,.106-.062c-.055.025-.21.118-.159.086a4.234,4.234,0,0,0,.621-.409,4.124,4.124,0,0,1,.354-.259c-.329.209-.006,0,.1-.061.016-.009-.028.024-.044.032-.052.027-.1.054-.155.079-.021.01-.043.017-.064.025-.042.012-.168.051-.127.037.116-.04.234-.074.35-.113l.107-.045.043-.018-.117.045c-.056.034-.329.046-.113.043-.046-.007.188,0,.141,0-.238-.024-.4-.053-.258-.013.044.011.175.049.133.032-.391-.152-.2-.055-.117-.022.156.062.255.094.132.053.3.115.385.149.663.235.162.044.086.024.228.06a1.7,1.7,0,1,0,.807-3.3h0l-.069-.016c-.138-.041-.211-.073-.266-.09a5.921,5.921,0,0,0-.605-.226,2.694,2.694,0,0,0-.84-.109,2.891,2.891,0,0,0-.817.1,2.436,2.436,0,0,0-.25.089c-.034.014-.136.051-.1.042.008,0,.629-.178.021-.014a2.575,2.575,0,0,0-.505.229c-.046.029-.191.092-.137.088s.2-.12.153-.089l-.241.142c-.186.13-.374.258-.548.4-.009.008-.038.025-.026.023a.121.121,0,0,0,.044-.026c-.042.029-.175.1-.128.084.9-.4-.229.049.069-.047.219-.1-.052.019.374-.128.032-.011-.066.014-.1.022a2.372,2.372,0,0,0-.4.134c-.005,0-.151.065-.145.064a1.943,1.943,0,0,0,.187-.064,2.16,2.16,0,0,0-.455.181l.01,0,.035-.014c.429-.149-.4.122.058-.006a2.8,2.8,0,0,0-.928.388l.043-.025.116-.057-.191.094c-.017.009-.068.035-.05.028a1.213,1.213,0,0,1,.558-.146,6.173,6.173,0,0,0-.713.077,2.739,2.739,0,0,0-.543.124c-.42.47-1.054.864-1.173,1.483-.174.9.29,1.214.765,1.575-.079-.068-.156-.137-.236-.2s.248.264.192.189c-.363-.492-.163-.139-.322-.436-.079-.229-.1-.216-.1-.36,0-.113,0-.226.006-.339,0,0,0-.015,0-.011s0,.025-.006.037a4.648,4.648,0,0,0-.1.555c.006-.022.1-.251.068-.154-.024.04-.272.453-.273.481s.034-.045.05-.068c-.033.05-.034.048.072-.068.016-.018-.034.034-.051.051l-.1.1-.043.04a.375.375,0,0,0-.036.033s.008,0,.011,0c.031-.015.059-.035.091-.048a1.507,1.507,0,0,1,.207-.078c.491-.128.532.01,1.208.17.779.822.481.331.76,1.07.01.027-.064-.285-.072-.3.069.531,0,.166.02,0q0-.233,0-.466t0-.461c0-.161,0-.322,0-.483,0-.277,0-.554-.021-.83a1.886,1.886,0,0,0-1.429-1.744,1.693,1.693,0,0,1,.213.075.987.987,0,0,0,.145.085c.078.023-.327-.178-.206-.13a3.664,3.664,0,0,0-1.058-.432,3.854,3.854,0,0,0-.79-.058h-.385c-.138,0-.276,0-.414,0-.44.008-1.117.023-1.405.391a6.79,6.79,0,0,0-.665,1.479c.1.293.2.588.31.878a.668.668,0,0,0,.138.18c.044.051.165.209.136.148-.089-.182-.34-.264-.325-.514a1.246,1.246,0,0,1-.005-.652.685.685,0,0,0-.018.07,1.7,1.7,0,1,0,3.3.825Z" fill="#fff" stroke="rgba(0,0,0,0)" stroke-width="1.4"/><path d="M-129.356,17.413c-.019,0-.075,0-.057,0,.046.011.093.009.14.016a4.076,4.076,0,0,1,.488.106,5.1,5.1,0,0,1,.568.176c-.1.018-.4-.226-.428-.225s.013.013.019.02a2.469,2.469,0,0,0,.854.534,2.185,2.185,0,0,0-.282-.128l-.123-.082c.074.047.145.1.22.144.041.025.168.1.129.068a2.09,2.09,0,0,1-.537-.432,1.836,1.836,0,0,1-.251-.5.924.924,0,0,1-.037-.167c.044.141.069.287.117.426.021.062.173.352.07.154-.061-.123-.171-.742-.022-.011a2.592,2.592,0,0,0,.685,1.105,1.56,1.56,0,0,0,1.584.3,2.361,2.361,0,0,0,.885-.624,2.224,2.224,0,0,0,.419-1.076,5.03,5.03,0,0,0-.015-1.617,3.114,3.114,0,0,0-.492-1.175c-.086-.124-.15-.211-.268-.39l-.013-.02a1.558,1.558,0,0,1,.223.585c.016-.049-.021-.279,0,0,0-.026.023-.1.016-.078-.087.311-.048.185-.016.113.06-.135.061-.113-.167.282.434-.625.689-.924-.012-2.153-.251-.441-.9-.485-1.382-.638a2.387,2.387,0,0,0-1.067.275,9.548,9.548,0,0,0-1.058.536q-.277.178-.539.377c.143-.124-.256.218-.189.167a1.928,1.928,0,0,1,.2-.155c-1.092,1.867-1.537,1.493.51,3.2.142.118.37.029.554.015a2.606,2.606,0,0,0,1-.348,8.858,8.858,0,0,0,.859-.562c.192-.181.311-.291.508-.486-.178.216.231-.271.171-.205-.03.033-.124.129-.087.1.093-.063.274-.313.2-.207.226-.215.44-.442.654-.67a3.918,3.918,0,0,0,.548-.534c-.069.074.169-.192.123-.147s-.106.128-.17.18a1.58,1.58,0,0,1-.648.332c-.168.019,0,.014.048.015l.364,0a3,3,0,0,0,.828-.11l-.019.006c.014,0,.261-.063.337-.089.1-.035.233-.1.344-.124a4.639,4.639,0,0,0,.842-.425c.176-.094.371-.278.521-.37a.8.8,0,0,1-.345.14c-.2.018-.35.1.356-.068.306-.071.24-.083.1-.037-.109.02.011.008-.041.013a1.7,1.7,0,1,0-.167-3.4h0a3.375,3.375,0,0,0-.646.092c-.066.019-.133.037-.2.058-.041.013-.111,0-.121.045s.078-.031.12-.039c.12-.023.242-.031.362-.053.033-.006-.066,0-.1.005-.054,0-.108.011-.162.016a2.7,2.7,0,0,0-1.025.38c-.115.077-.457.314-.454.327.008.038.067-.04.1-.06-.059.034-.186.107-.237.14-.011.007.052-.019.039-.013a.325.325,0,0,0-.086.038c-.017.016.045-.014.068-.021-.01,0-.24.08-.28.1-.016.008.07-.02.053-.013s-.105.008-.081.024c0,0,.379-.074-.071.015l-.117.029s-.017,0-.012,0a.16.16,0,0,0,.026,0c.447-.028.173-.006.073-.013l-.342,0a3.825,3.825,0,0,0-.656.035,2.067,2.067,0,0,0-1.288.747c-.1.12-.3.275-.469.447s-.319.35-.493.51c-.158.154-.3.308-.453.47-.011.012-.046.041-.03.038s.025-.026.037-.039.109-.095.081-.072a3.889,3.889,0,0,0-.353.328.764.764,0,0,0,.059-.049c.38-.252-.214.123-.275.168-.016.009-.065.029-.047.028a1.191,1.191,0,0,0,.122-.034c.132-.025.525-.082.609,0,.507.484,1.247.924,1.34,1.618.08.592-.61,1.027-.916,1.54a2.652,2.652,0,0,0,.333-.2c.075-.055.145-.115.218-.173.007-.005.027-.021.019-.018a.13.13,0,0,0-.028.022c-.243.172.4-.275.09-.075a6.249,6.249,0,0,1,.693-.358c.04-.017.119-.007.121-.051s-.079.018-.12.022c-.08.008-.166.044-.24.013-.438-.181-1.05-.218-1.27-.638-.646-1.233-.438-1.477-.017-2.057a2.942,2.942,0,0,0-.487,1.12,3.56,3.56,0,0,0-.054.907,2.209,2.209,0,0,0,.376,1.1c.01.015.135.2.137.191.015-.045-.029-.129-.076-.12-.113.02.152.126.2.3.077.113.063.1-.044-.1-.006-.011.02.047.017.034-.01-.044-.024-.086-.038-.128a.372.372,0,0,0,.031.1c.01-.057,0-.022.013.057a1.436,1.436,0,0,1-.007.3c0,.024,0,.047-.005.071.084-.141.114-.345.252-.454a2.284,2.284,0,0,1,.823-.545,1.477,1.477,0,0,1,1.5.29c1.441,1.892.4.356.489.667.011.069.021.277.035.208a1.878,1.878,0,0,0-.19-.692c-.024-.051-.021-.13-.073-.152s.05.1.066.149c.035.113.042.233.084.343.031.08-.028-.169-.049-.252a2.188,2.188,0,0,0-.3-.632,2.373,2.373,0,0,0-.683-.591c-.018-.013.04.021.058.033.05.033.2.137.148.1s-.122-.085-.183-.128c-.794-.386-.067-.084.063.092a2.5,2.5,0,0,0-1-.636,6.764,6.764,0,0,0-.694-.212,6.849,6.849,0,0,0-1.436-.237,1.7,1.7,0,1,0,0,3.4Z" fill="#fff" stroke="rgba(0,0,0,0)" stroke-width="1.4"/><path d="M-121.821,9.271a1.278,1.278,0,0,1,.9.7c.032.11.012-.168.012-.2,0-.144,0-.288,0-.432,0-.085,0-.17,0-.256s0-.145,0-.218q0-.15,0-.3c.026-.424-.054.338.018-.069.009-.048.016-.1.024-.146a6.345,6.345,0,0,0,.062-.812,2.718,2.718,0,0,0-.138-1.016,1.885,1.885,0,0,0-1.075-1.1,3.777,3.777,0,0,0-.366-.1,2.316,2.316,0,0,0-1.735.476,5.311,5.311,0,0,0-1.153,1.147c-.177.211-.312.454-.488.666a7.375,7.375,0,0,0-.8,1.454c-.116.3-.256.581-.369.879a2.629,2.629,0,0,0-.1.353c-.009.035.03-.07.024-.105s-.017.058-.027.087.035-.094.022-.073a.745.745,0,0,0-.043.109l-.064.165a1.7,1.7,0,1,0,3.175,1.215h0l.049-.128a5.349,5.349,0,0,0,.193-.583.817.817,0,0,1-.035.112c-.027.053-.019.038.023-.057.069-.158.142-.315.209-.475.018-.043.034-.087.051-.131.1-.233.217-.459.331-.686.175-.22.333-.451.5-.678.107-.137.234-.27.329-.407a1.577,1.577,0,0,0,.138-.088c.014-.011-.034.013-.051.019a.711.711,0,0,1-.118.04c-.47.075-.354.08-.621.042a3.059,3.059,0,0,1-.295-.084,1.567,1.567,0,0,1-.886-.873,1.513,1.513,0,0,1-.08-.5c0-.016,0,.032,0,.048,0,.062,0,.125,0,.187,0,.117-.006.233-.019.349a3.628,3.628,0,0,0-.086.758q0,.151,0,.3,0,.106,0,.212t0,.233c0,.164,0,.328,0,.493a4.387,4.387,0,0,0,.114,1.088,2.417,2.417,0,0,0,1.005,1.436,5.748,5.748,0,0,0,.545.242,1.7,1.7,0,1,0,.825-3.3Z" fill="#fff" stroke="rgba(0,0,0,0)" stroke-width="1.4"/><path d="M-121.523,1.866c-.1.171-.2.339-.3.513a2.928,2.928,0,0,0-.171.432,1.585,1.585,0,0,0-.051.222c0,.016-.011.066-.007.05a.931.931,0,0,0,.028-.132c0-.026-.015.05-.022.075-.031.147-.055.295-.094.44a1.294,1.294,0,0,1-.215.436,1.422,1.422,0,0,1-.389.311c-.124.056-.254.161-.38.206.026-.024.047-.02.106-.024a.533.533,0,0,1,.117.015c.01,0,.036.012.029.005s-.027-.019-.02-.015a.411.411,0,0,1,.036.023.513.513,0,0,1,.145.188c.009.02.015.042.024.062s.01.021.012.015a.439.439,0,0,0,.017-.085c.076-.29.17-.574.238-.867a4.522,4.522,0,0,0,.085-.918,1.64,1.64,0,0,1,.185-.624,2.165,2.165,0,0,1,.431-.649.872.872,0,0,1,.37-.213c.134-.027.267-.053.4-.067a3.1,3.1,0,0,1,.586,0,2.278,2.278,0,0,1,.556.188,3.053,3.053,0,0,1,.586.306,1.2,1.2,0,0,1,.254.233c.1.115.2.231.317.336.038.03.073.062.113.089a1.363,1.363,0,0,0,.429.194c.05.013.141.028.07.016,0,0,0,0,0,0-.055-.028-.127-.035-.166-.083-.351-.428-.544-.689-.2-1.222-.257.2-.511.409-.764.616-.289.239-.572.486-.837.751a4.534,4.534,0,0,1-.471.445,6.981,6.981,0,0,0-.62.552c-.191.2-.357.429-.538.642a4.1,4.1,0,0,1-.42.452,2.4,2.4,0,0,1-.27.2c.291-.125.533-.224.972.205s.027,1.017.235.693a13.269,13.269,0,0,1,1.219-1.424c.38-.406.78-.794,1.153-1.207a2.821,2.821,0,0,0,.479-.65,1.173,1.173,0,0,0,.05-.857,3.366,3.366,0,0,0-.175-.316,1.366,1.366,0,0,0-.781-.467c-.081-.013-.163-.017-.245-.025a1.806,1.806,0,0,0-1.223.588,7.671,7.671,0,0,0-.572.7c-.166.216-.34.425-.511.637-.072.091-.148.179-.224.267-.018.021-.035.042-.054.062l-.006,0,.249-.173a5.368,5.368,0,0,1,.986.246c.1.044.1.185.144.279.011.023,0,.078.023.073s.021-.057.031-.085c.022-.061.042-.122.064-.182.029-.077.06-.153.09-.23a4.979,4.979,0,0,1,.524-.975c.089-.124.287-.336.3-.479A4.493,4.493,0,0,0-119.618,1a3.063,3.063,0,0,0-.335-.388,1.252,1.252,0,0,0-.763-.174c-.132.024-.258.069-.388.1a2.282,2.282,0,0,0-.978.971,4.166,4.166,0,0,0-.386.978c-.039.15-.073.3-.116.451-.028.1-.01.065-.034.107-.049.08-.062.227-.111.3A.3.3,0,0,0-122.7,3.3a1.034,1.034,0,0,0-.056.095c0,.005.011-.021.007-.016-.024.029-.044.061-.067.09-.091.13-.2.245-.3.37s-.207.266-.3.406a4.623,4.623,0,0,0-.292.549c-.07.147-.13.3-.192.45a3.077,3.077,0,0,1-.167.372s-.158.23-.061.09a.688.688,0,0,1,.579-.226,3.365,3.365,0,0,1,.634.322l.145.284c0,.013,0,.048.011.038s0-.261,0-.3c.058-.243.147-.478.223-.716a14.53,14.53,0,0,0,.458-1.771,2.173,2.173,0,0,0,.019-1.216,2.05,2.05,0,0,0-.193-.306,1.415,1.415,0,0,0-.417-.31l.022.01a.51.51,0,0,1,.092.068c.128.15.057.058.039-.054-.021-.163-.04-.326-.063-.489a4.566,4.566,0,0,0-.1-.541c-.024-.145-.077-.282-.113-.424a5.02,5.02,0,0,0-.277-.657c-.092-.2-.176-.4-.249-.6-.042-.139-.093-.274-.132-.414a3.537,3.537,0,0,1-.115-.345,2.777,2.777,0,0,1-.1-.524c0-.085-.017-.171-.017-.256,0-.009,0,.018,0,.027a.9.9,0,0,1-.045.235,2.108,2.108,0,0,1-.191.286c-.31.182-.233.192-.576.2A.788.788,0,0,1-124.6-2s-.008,0-.007.006a.4.4,0,0,0,.029.045q.274.366.563.719c.2.256.414.493.631.73.131.129.256.264.382.4-.029-.035.07.077.053.057S-123-.1-123.019-.127a.72.72,0,0,0-.041-.067c-.015-.016.021.038.031.056l-.023-.042c-.008-.019-.017-.037-.024-.057s-.009-.027-.013-.04-.006-.023,0-.017c.014.067.031.133.045.2a1.688,1.688,0,0,0,.331.682,1.326,1.326,0,0,0,.94.435,2.213,2.213,0,0,0,.57-.02,1.2,1.2,0,0,0,.743-.66,2.3,2.3,0,0,0,.09-.371,1.547,1.547,0,0,0-.607-1.168c-.134-.128-.282-.244-.408-.38-.05-.054-.094-.113-.141-.17a4.025,4.025,0,0,1-.421-.652c-.047-.1-.1-.2-.146-.3-.01-.021-.02-.042-.03-.063s-.01-.031-.008-.023c.018.064.037.127.055.191a.667.667,0,0,1-.054.37s0,.013,0,.01c.032-.039.06-.08.088-.121s.057-.087.086-.13a2.141,2.141,0,0,0,.3-.669c.018-.015-.035.106-.022.074.053-.13.1-.259.15-.391.133-.358.251-.723.394-1.077.086-.205.171-.411.261-.614a2.921,2.921,0,0,0,.206-.5c.067-.213.131-.428.2-.64.04-.141.091-.279.136-.419a.9.9,0,0,0-.431-1.13.935.935,0,0,0-.266-.088,1.268,1.268,0,0,0-1.024.3c-.069.056-.13.12-.195.181a9.549,9.549,0,0,0-.942,1.41c-.125.214-.251.429-.387.636-.095.147-.191.294-.287.441-.086.123-.169.248-.255.371-.05.055-.074.132-.123.187l.018-.029s0-.006,0,0c-.021.023-.042.046-.062.07.016-.018.059-.032.048-.053s-.034.03-.052.045c0,0,.007,0,.006-.007s-.009.005-.007,0a.523.523,0,0,1,.116-.065c.15-.049-.039.014-.1.019-.077.005-.154.006-.231.006a1.707,1.707,0,0,0-.449.044,1.322,1.322,0,0,0-.4.162.821.821,0,0,1,1.181.4c0,.005,0,.021.008.016s0-.019,0-.029c0-.027,0-.054,0-.082a.937.937,0,0,1,.02-.228.637.637,0,0,1,.178-.312,2.037,2.037,0,0,1,.327-.287,2.637,2.637,0,0,0,.508-.486,6.861,6.861,0,0,0,.408-.589l.048-.071c.048-.07.1-.139.145-.209s.045-.08.037-.05a2.878,2.878,0,0,0,.268-.431,1.4,1.4,0,0,0,.116-.565A1.04,1.04,0,0,0-122.6-8a1.658,1.658,0,0,0-.208-.092,1.3,1.3,0,0,0-.894.06,2.541,2.541,0,0,0-.6.388c-.125.113-.257.218-.386.327-.148.132-.293.268-.438.4s-.254.285-.391.418c-.109.121-.228.231-.342.346s-.2.212-.3.316a1.894,1.894,0,0,0-.27.3c0-.005.014-.021.01-.016-.078.1-.133.184-.188.264.034-.048-.082.123-.06.094.195-.25.327-.454.8-.369.258.046.432.3.648.445.136.41,0-.109-.015-.16a1.794,1.794,0,0,1-.022-.279c0-.021,0-.042,0-.064s0,.018.006.023.046-.133.047-.139c.014.013-.044.061-.022.064s.016-.027.024-.04.014-.02.011-.015c-.031.052-.053.072.019-.01s.167-.153.251-.237c.217-.23-.1.1.126-.135l-.027.031a1.568,1.568,0,0,0,.293-.348c.044-.051.078-.11.125-.158a.87.87,0,1,0-1.277-1.178h0c-.08.088-.154.182-.225.277s-.058.074-.125.172l0-.006c-.006.009-.025.033-.018.025.114-.128-.032.014.143-.146a2.169,2.169,0,0,0-.266.255,3.451,3.451,0,0,0-.317.308,1.857,1.857,0,0,0-.375.61,2.03,2.03,0,0,0-.134.777,3.046,3.046,0,0,0,.078.656,3.247,3.247,0,0,0,.145.5c.224.164.4.435.672.492a.894.894,0,0,0,.928-.474,2.381,2.381,0,0,1,.162-.225c-.146.17.079-.088.1-.091.1-.106.2-.209.3-.311s.231-.217.333-.338c.119-.123.234-.25.348-.377s.247-.23.371-.344.239-.195.353-.3c.043-.036.092-.067.134-.1,0,0-.012,0-.01,0s.024-.012.034-.02-.009,0-.014,0c.014-.006.056-.018.041-.017-.051,0-.1.021-.151.026a.436.436,0,0,1-.179-.032,1.2,1.2,0,0,1-.15-.073.749.749,0,0,1-.348-.648c0,.073.029-.135.055-.14l.018-.025a.579.579,0,0,0-.067.112c-.125.161-.24.331-.353.5-.086.138-.177.274-.275.405a1.009,1.009,0,0,1-.25.234,3.656,3.656,0,0,0-.585.539,2.4,2.4,0,0,0-.56,1.167,2.871,2.871,0,0,0,.026,1.06.925.925,0,0,0,.283.493.931.931,0,0,0,1.121.1,1.034,1.034,0,0,1-.168.066c-.087.03.167-.053.089-.023a.757.757,0,0,1-.15.013.3.3,0,0,0,.037,0h.137a3.967,3.967,0,0,0,.445-.021,2.682,2.682,0,0,0,.464-.108,1.672,1.672,0,0,0,.6-.407,1.13,1.13,0,0,1,.093-.1,2.324,2.324,0,0,0,.193-.273c.1-.139.191-.28.288-.419l.286-.44c.149-.228.288-.462.425-.7.212-.357.426-.714.663-1.056.07-.093,0-.03-.124-.011a.449.449,0,0,1-.185-.008.768.768,0,0,1-.221-.079.878.878,0,0,1-.445-.673,1.668,1.668,0,0,1,.033-.306c0-.014-.016.069-.012.04-.041.131-.089.259-.127.391-.072.214-.138.429-.2.644-.011.033-.023.066-.033.1,0,.008,0,.018,0,.026-.033.077-.083.145-.111.224-.1.222-.193.446-.285.67-.149.374-.277.755-.415,1.133-.086.242-.1.242-.182.5,0,0,0-.012,0-.009.007.054-.062.108-.075.152-.042.075-.1.141-.148.213a1.21,1.21,0,0,0-.235.754c.022.1.039.2.066.3a.77.77,0,0,0,.043.1c.062.139.136.273.2.411a5.971,5.971,0,0,0,.633.974,5.359,5.359,0,0,0,.678.689c.022.02.045.04.066.061s.032.042.054.055,0-.018,0-.027a.937.937,0,0,1-.03-.114.753.753,0,0,1,.078-.45l.048-.073-.014.021s0,0,0,0a.657.657,0,0,1,.176-.139c.067-.031.139-.052.208-.078.35-.035.08-.007,0-.019-.01,0-.037,0-.029,0a.591.591,0,0,1,.266.191c.014.023.067.155.022.035,0,0,0,.008,0,.012a2.492,2.492,0,0,0-.121-.44,1.317,1.317,0,0,0-.261-.382c-.121-.129-.241-.259-.368-.383-.194-.212-.39-.422-.563-.651-.224-.275-.434-.559-.662-.83-.062-.061-.121-.125-.187-.182a1.324,1.324,0,0,0-1.13-.353,2.129,2.129,0,0,0-.418.2,2.589,2.589,0,0,0-.269.355,1.572,1.572,0,0,0-.064.85,4.586,4.586,0,0,0,.148.773c.037.134.084.282.131.4.051.168.106.335.161.5.088.245.186.486.3.721.061.138.13.273.189.411.035.124.076.246.1.373a2.726,2.726,0,0,1,.068.371c.029.213.05.428.09.639a1.939,1.939,0,0,0,.4.868,1.687,1.687,0,0,0,.34.262c.044.025-.152-.114-.116-.119a1.2,1.2,0,0,1-.1-.192,1.052,1.052,0,0,1-.026-.224c0-.006.009-.023.008-.017-.013.169-.055.335-.08.5a12.652,12.652,0,0,1-.409,1.583,5.155,5.155,0,0,0-.3,1.161,3.835,3.835,0,0,0,.008.559.863.863,0,0,0,.026.182c.044.129.11.249.166.374a3.448,3.448,0,0,0,.662.36c.27.077.638-.176.814-.365a2.8,2.8,0,0,0,.326-.5,4.6,4.6,0,0,0,.2-.448c.056-.135.108-.272.172-.4a3.141,3.141,0,0,1,.154-.3c.069-.112.162-.207.237-.315.088-.134.221-.237.3-.376a2.726,2.726,0,0,0,.313-.5c.046-.119.087-.241.133-.36.078-.225.136-.456.191-.687a2.5,2.5,0,0,1,.208-.559,1.245,1.245,0,0,1,.1-.176c.03-.036.074-.065.068-.073s-.02,0-.03,0c-.065.008-.129.019-.194.024a.277.277,0,0,1-.088-.022c-.316-.148-.19-.089-.481-.454a4.836,4.836,0,0,1-.01-.623c.008-.07.071-.122.1-.185.006-.012-.016.022-.024.033-.059.079-.119.158-.178.237a6.9,6.9,0,0,0-.717,1.337,2.87,2.87,0,0,0-.3,1.35c.033.162.038.373.176.462a4.137,4.137,0,0,0,1.048.329c.11-.068.225-.13.33-.205a.679.679,0,0,0,.1-.1c.112-.12.213-.252.319-.378.181-.223.364-.444.539-.672.131-.171.258-.346.4-.51.032-.034.11-.1.107-.1s-.15.019-.158,0a.434.434,0,0,1-.29-.194c-.033-.072-.073-.141-.1-.216a.538.538,0,0,1,.039-.406c.009-.014.017-.029.026-.042s-.009.02-.015.029c-.066.088-.142.168-.215.25-.36.405-.757.777-1.124,1.176a12.018,12.018,0,0,0-1.491,1.8c-.194.389-.423.728-.023,1.243a.9.9,0,0,0,1.287.135,4.275,4.275,0,0,0,.506-.386,5.973,5.973,0,0,0,.574-.61c.154-.182.3-.371.456-.552a6.019,6.019,0,0,1,.512-.451,5.985,5.985,0,0,0,.573-.54c.219-.225.462-.425.7-.628.281-.229.565-.455.844-.685a.876.876,0,0,0,.375-.879.91.91,0,0,0-.713-.767c-.258-.067.025.006.086.092-.013-.011-.121-.127-.164-.177a3.081,3.081,0,0,0-.6-.548,4.9,4.9,0,0,0-.87-.464,3.809,3.809,0,0,0-1.073-.324,5.026,5.026,0,0,0-.951,0,4.129,4.129,0,0,0-.843.174A2.663,2.663,0,0,0-123,.37,4.031,4.031,0,0,0-123.74,1.5a3.348,3.348,0,0,0-.33,1.291,2.993,2.993,0,0,1-.042.562c-.072.329-.2.643-.259.974-.012.078-.028.156-.035.235a1.361,1.361,0,0,0,.385,1.151,1.607,1.607,0,0,0,.88.418,1.6,1.6,0,0,0,.757-.136c.184-.089.361-.191.539-.29a3.192,3.192,0,0,0,.877-.748c.047-.065.1-.127.141-.194a3.516,3.516,0,0,0,.368-.841c.029-.11.037-.132.061-.246.012-.057.022-.115.032-.173,0-.005,0-.019,0-.016s0,.013-.007.02l0,0,.046-.184s-.012.041-.006.013c-.01.019,0,.007.009-.027s.027-.071.039-.107c0-.009-.018.035-.014.026s.012-.026.018-.038c.075-.148.169-.284.249-.429a.87.87,0,1,0-1.49-.894Z" fill="#fff" stroke="rgba(0,0,0,0)" stroke-width="1.4"/><path d="M-126.209-6.63a5.735,5.735,0,0,1-.661-.527c-.147-.117-.29-.24-.437-.358a2.371,2.371,0,0,1-.2-.168,1.862,1.862,0,0,0-.448-.3c-.131-.061-.261-.122-.386-.194a3.12,3.12,0,0,1-.479-.3c.021.026-.043-.042-.033-.031.232.27.332.309.23.857a.9.9,0,0,1-.328.445,2.97,2.97,0,0,1,.689-.049,1.791,1.791,0,0,1,.351.169,3.524,3.524,0,0,0,.7.338,7.373,7.373,0,0,0,.773.141c.109.029.217.064.327.092.682-.062.8.075,1.107-.834.1-.285-.294-.826-.457-1.055a5.784,5.784,0,0,0-.739-.8c-.067-.078-.167-.133-.224-.221-.006-.009.018.014.025.023.021.027.038.056.057.084,0,0,0,.007.008.005s-.011-.3-.011-.33c0-.216,0-.433,0-.649,0-.313,0-.625-.006-.937-.011-.34-.045-.678-.078-1.016a2.8,2.8,0,0,0-.075-.517,1.044,1.044,0,0,0-.458-.646,2.154,2.154,0,0,0-.333-.177.472.472,0,0,0-.09-.041c-.143-.033-.289-.053-.433-.079a1.867,1.867,0,0,0-1.179.6,3.068,3.068,0,0,1-.562.359c-.268.149-.529.311-.781.485-.109.048-.233.2-.343.228a2.835,2.835,0,0,1-.418.183,6.783,6.783,0,0,0-.647.218,3.853,3.853,0,0,0-.794.537,2.019,2.019,0,0,0-.437.493,1.911,1.911,0,0,0-.239.884,1.629,1.629,0,0,0,.251.873c.037.056.079.109.119.163a2.2,2.2,0,0,0,.444.42,2.3,2.3,0,0,0,.7.3c.227.058.461.077.69.123a6.421,6.421,0,0,1,.845.227c.181.056.354.157.541.195.082.017.166.027.249.041.306-.3.749-.516.918-.913.087-.2-.155-.42-.271-.609a.755.755,0,0,0-.217-.181,6.757,6.757,0,0,0-.642-.389c-.135-.08-.27-.162-.4-.248a.385.385,0,0,1-.106-.081l-.008-.01a.755.755,0,0,1,.145.781.53.53,0,0,1-.069.13c.006.024-.112.119-.112.119s.07-.02.082-.007.019,0,.025,0-.012,0-.018,0a.434.434,0,0,1-.124-.021,6.951,6.951,0,0,0,.586.438,3.758,3.758,0,0,0,.824.385,1.016,1.016,0,0,0,1.137-.283,1.136,1.136,0,0,0,.254-.594,2.4,2.4,0,0,0-.32-1.3,3.241,3.241,0,0,1-.223-.466c0-.1.006.007.008.066a.842.842,0,0,1-.108.324c-.021.027-.046.051-.044.052s.013-.005.019-.008a2.493,2.493,0,0,0,.355-.175,4.038,4.038,0,0,0,.341-.461.5.5,0,0,0,.049-.262.952.952,0,0,0-.375-.8,1.3,1.3,0,0,0-.512-.234,1.949,1.949,0,0,0-1.529.312c-.073.047-.141.1-.212.151a1.992,1.992,0,0,0-.723,1.143,1.254,1.254,0,0,0,.188.979,1.093,1.093,0,0,0,.536.395,2.53,2.53,0,0,0,.285.068,1.672,1.672,0,0,0,1.163-.351,2.8,2.8,0,0,0,.574-.591c.048-.078.23-.289-.041.026a.87.87,0,1,0-1.148-1.3h0a2.016,2.016,0,0,0-.2.23c-.052.07-.108.137-.164.2l-.046.034c-.009.007-.032.012-.025.02s.028,0,.042,0a.544.544,0,0,1,.2.057.653.653,0,0,1,.1.064.573.573,0,0,1,.221.571c0-.035,0,0,0-.046,0,0-.011,0-.01,0a.642.642,0,0,1,.067-.088,2.3,2.3,0,0,0,.195-.147c0-.006-.015-.016-.008-.019s.047,0,.065-.008-.016-.013-.025-.02c.085.006-.028,0-.113-.1a1.026,1.026,0,0,1-.2-.287,1.055,1.055,0,0,1-.053-.362c0-.259.22-.42.366-.6.353-.182-.118.05-.167.063a1.494,1.494,0,0,0-.7.647,2.779,2.779,0,0,0-.1.324,1.7,1.7,0,0,0,.1.777,4.556,4.556,0,0,0,.288.613c.042.081.077.165.116.248,0,.009.012.016.015.025s0,.059.01.047.011-.053.017-.08a1.082,1.082,0,0,1,.056-.136.756.756,0,0,1,.845-.348l-.027-.006a1.992,1.992,0,0,1-.419-.188c-.186-.121-.354-.262-.529-.4-.051-.034-.1-.072-.153-.1a1.541,1.541,0,0,0-.9-.2,1.724,1.724,0,0,0-1.171.528,1.136,1.136,0,0,0-.163.246,1.736,1.736,0,0,0-.1.535,1.076,1.076,0,0,0,.375.695,5.1,5.1,0,0,0,.809.549l.179.1.177.1c.034.02.119.1.1.039-.063-.175-.278-.359-.192-.523.2-.374.613-.581.919-.871.057.012.114.026.171.036.018,0-.035-.011-.052-.016l-.066-.022c-.132-.047-.262-.1-.393-.147a8.278,8.278,0,0,0-1.066-.285c-.195-.037-.392-.06-.586-.1a.438.438,0,0,1-.111-.034c-.01,0-.029-.021-.029-.01s.012.01.018.015a.33.33,0,0,1-.1-.1c.028.049.031.048.013.12,0-.017.008-.063,0-.05s-.014.028-.012.02c.013-.041.051-.1-.016.012,0-.005.009-.009.009-.015s-.014.005-.011,0,.08-.072.089-.08c.113-.1.221-.167.34-.252,0,0,.005-.009.008-.013.181-.081.378-.118.564-.186a4.569,4.569,0,0,0,.614-.268,5.076,5.076,0,0,0,.549-.351c.21-.147.431-.279.654-.4a4.538,4.538,0,0,0,.841-.558c.4-.351-.194.169.183-.157.013-.011.049-.041.032-.039-.21.029.006.023-.21.021-.085-.025-.169-.054-.255-.076-.018,0,.035.015.052.023l.091.044c.011.005.038.024.032.014s-.106-.072,0,0a.81.81,0,0,1-.274-.421c-.007-.016.024.076.013.051,0,.011.005.022.008.033s0-.055,0-.041c.009.087.012.175.023.263.029.305.061.61.071.917.013.288,0,.577.005.865,0,.229,0,.458,0,.687a2.877,2.877,0,0,0,.13.943c.042.085.077.172.125.254a2.483,2.483,0,0,0,.439.476,4.149,4.149,0,0,1,.522.554,1.907,1.907,0,0,1,.141.2c.007.011.024.046.024.032,0-.108-.08-.225-.033-.323.4-.824.376-.692,1.045-.729-.145-.035-.284-.09-.431-.114-.18-.032-.362-.058-.543-.082a2.426,2.426,0,0,1-.407-.211,2.7,2.7,0,0,0-1.1-.381,4.113,4.113,0,0,0-1.394.162c-.3.133-.576.213-.694.618a.956.956,0,0,0,.393,1.113,4.9,4.9,0,0,0,.679.428c.15.084.3.163.46.234.084.041.135.068,0-.008l.024.016c.007,0,.018.022.022.014s-.083-.074.017.013c.223.2.461.375.688.567a6.66,6.66,0,0,0,.886.688.87.87,0,1,0,.894-1.49Z" fill="#fff" stroke="rgba(0,0,0,0)" stroke-width="1.4"/><path d="M-132.038-11.567c-.324.007-.647.028-.971.04a1.194,1.194,0,0,1-.322-.014c-.007,0,.021,0,.02,0s-.012-.01-.019-.015c-.042-.031.05.025.068.038s.009.012.016.011,0-.008-.005-.012c-.023-.033-.047-.066-.07-.1-.149-.232-.324-.446-.489-.667a3.266,3.266,0,0,1-.276-.458c-.248-.41-.534-.8-.815-1.185q-.22-.311-.426-.631a2.565,2.565,0,0,0-.389-.487,3.04,3.04,0,0,0-.371-.327,1.3,1.3,0,0,0-.612-.254c-.137.014-.275.017-.41.043a.575.575,0,0,0-.154.064,1.391,1.391,0,0,0-.554.563c-.141.259-.267.526-.405.787a1.179,1.179,0,0,1-.223.278,3.894,3.894,0,0,0-.493.482c-.159.175-.3.369-.439.556a2.113,2.113,0,0,1-.349.364c-.166.148-.333.295-.492.451a3.658,3.658,0,0,0-.387.488,3.662,3.662,0,0,0-.368.744,3.169,3.169,0,0,0-.174.587,1.632,1.632,0,0,0,.012.626.548.548,0,0,1,.012.1.105.105,0,0,0,0,.015.8.8,0,0,1,.108-.423c.08-.112-.121.143-.129.154-.339.418-.381.728.1,1.368.132.175.425.107.638.16a4.117,4.117,0,0,0,1.159-.426c.309-.136.6-.3.9-.459a3.055,3.055,0,0,1,.531-.234,5.168,5.168,0,0,1,.517-.131,2.038,2.038,0,0,1,.331-.026c.159,0,.32-.014.478,0s.341.034.513.043c.145.011.289.033.435.045a3.62,3.62,0,0,1,.466.059,1.927,1.927,0,0,1,.4.1c.1.038.2.069.3.11.006,0-.014-.007-.021,0s.007.006.011.009a2.5,2.5,0,0,0,.438.246,2.11,2.11,0,0,0,.554.138c.724.071.222-.071.267-1.723,0-.017-.034-.006-.051-.009l-.1-.022A12.431,12.431,0,0,0-134.7-10.8a7.641,7.641,0,0,0-.97-.067,5.073,5.073,0,0,0-.708.029c-.22.029-.438.07-.657.1a2.8,2.8,0,0,1-.328.03c-.171,0-.34.023-.51.037-.228.015-.457.016-.686.017a2.679,2.679,0,0,1-.529-.027c.02-.012.045.021.063.01s-.041-.02-.03-.016c.1.041.074.04.184.146a1.358,1.358,0,0,1,.165.516c0,.033-.037.076-.013.1s.046-.029.068-.046a1.932,1.932,0,0,1,.31-.235,2.236,2.236,0,0,1,.909-.343,6.529,6.529,0,0,1,.889-.107,7.089,7.089,0,0,1,.8-.041.954.954,0,0,1,.291.044s-.009,0-.007,0a.443.443,0,0,0,.051.023c-.037-.016.087.057.078.051s-.032-.029-.053-.032.051.041.039.03-.036-.03-.055-.045a2.866,2.866,0,0,0,.37.35c.172.131.353.252.529.377l.071.052q.09.068.176.141c.048.041.058.046.03.029.094.1.183.2.279.294.008.014.165.19.079.093.052.066.264.375.06.064.034-.833-.179-.8.5-1.2.064-.037.147-.018.219-.036.014,0-.029,0-.044-.008a.387.387,0,0,1-.051-.027,1.506,1.506,0,0,1-.363-.379q-.3-.419-.6-.841a5.314,5.314,0,0,0-.592-.7,3.737,3.737,0,0,0-.8-.576,5.573,5.573,0,0,0-.9-.422,1.422,1.422,0,0,0-.913-.044,3.3,3.3,0,0,0-.471.219l-.034.013c.036-.006-.108.034-.08.029.5-.091.451-.209,1.065.506.1.113.023.3.034.446l-.079.212c0,.007-.011.022-.005.02a.216.216,0,0,0,.045-.035c.061-.045.126-.085.191-.125a.389.389,0,0,1,.076-.033.87.87,0,1,0-.551-1.648h0a2.235,2.235,0,0,0-.446.207,3.032,3.032,0,0,0-.573.435,1.224,1.224,0,0,0-.165.189c-.07.111-.118.235-.177.352,0,.183-.1.4.008.549.523.711.839.708,1.419.461a2.3,2.3,0,0,0,.3-.153c.018-.026-.115.069-.091.03-.035,0-.08.006-.109.006-.1,0-.178-.054-.031,0a3.68,3.68,0,0,1,.616.289,2.166,2.166,0,0,1,.456.31,3.439,3.439,0,0,1,.391.462c.218.311.437.62.662.926a2.8,2.8,0,0,0,1.114.925c.072.025.143.054.216.075a1.454,1.454,0,0,0,.737.042.992.992,0,0,0,.539-.384,2.344,2.344,0,0,0,.053-.864,3.772,3.772,0,0,0-.213-.316,3.462,3.462,0,0,0-.274-.318c-.084-.052-.155-.2-.242-.256a4.276,4.276,0,0,0-.521-.431c-.147-.1-.3-.2-.44-.309a1.641,1.641,0,0,1-.236-.23,2.094,2.094,0,0,0-.558-.373,2.542,2.542,0,0,0-.976-.208,9.038,9.038,0,0,0-.993.047,8.066,8.066,0,0,0-1.071.133,4.035,4.035,0,0,0-1.58.632,2.58,2.58,0,0,0-1.038,1.15.681.681,0,0,0-.059.305,4.684,4.684,0,0,0,.156.631c.067.076.129.155.2.227a.684.684,0,0,0,.105.081,1.654,1.654,0,0,0,.616.262,4.484,4.484,0,0,0,.82.049c.272,0,.544,0,.815-.023.144-.012.283-.034.426-.032a4.625,4.625,0,0,0,.542-.05c.187-.03.373-.063.561-.092a3.232,3.232,0,0,1,.5-.021,5.86,5.86,0,0,1,.758.051,11.151,11.151,0,0,1,1.3.259c.062.013.125.028.187.04.044.008.125.065.133.021.416-2.15.761-1.675.135-1.729a.275.275,0,0,1-.119-.028c.171.094-.185-.113-.19-.124a3.289,3.289,0,0,0-.613-.265,3.625,3.625,0,0,0-.665-.164,5.406,5.406,0,0,0-.63-.08c-.16-.011-.317-.041-.477-.047s-.327-.028-.491-.042c-.214-.011-.429-.01-.643-.005a3.49,3.49,0,0,0-.672.071,6.585,6.585,0,0,0-.645.166,4.868,4.868,0,0,0-.815.351c-.274.143-.544.3-.828.421l-.329.153a2.837,2.837,0,0,0-.265.115s.008,0,.011,0c.18.056.437.01.541.168.538.82.406.8.155,1.215-.053.087.13-.187.083-.1.064-.082.116-.142.19-.236a1.078,1.078,0,0,0,.2-.709,2.316,2.316,0,0,0-.045-.332c-.009-.031,0,.064-.005.1,0,.016,0-.073,0-.049,0-.006,0-.013,0-.019a1.576,1.576,0,0,1,.083-.259,3.035,3.035,0,0,1,.155-.352,2.8,2.8,0,0,1,.209-.279c.128-.133.273-.246.407-.372A3.919,3.919,0,0,0-138-11.8c.124-.163.242-.332.38-.483.023-.027.04-.057.065-.082.106-.105.23-.19.334-.3a2.991,2.991,0,0,0,.532-.7c.126-.238.244-.48.368-.719.013-.046.006-.011-.056.042a.409.409,0,0,1-.054.038.843.843,0,0,1-.5.092.484.484,0,0,1-.23-.1,1.328,1.328,0,0,1,.2.169.9.9,0,0,1,.176.219q.232.36.479.709c.245.338.493.674.714,1.028a4.863,4.863,0,0,0,.392.635c.158.212.326.417.469.639a1.7,1.7,0,0,0,.646.614,1.849,1.849,0,0,0,.316.126,2.508,2.508,0,0,0,.824.079c.3-.011.606-.03.909-.039a.87.87,0,1,0,0-1.738Z" fill="#fff" stroke="rgba(0,0,0,0)" stroke-width="1.4"/><path d="M-135.041-.678c0-1.033-.611-.821-1.561-.647-.083.015-.09.143-.136.215a5.738,5.738,0,0,0-.314.859c-.019.058-.031.117-.049.175,0,0,0,0,0,0s.011-.033.017-.049A.646.646,0,0,1-137-.255c.083-.08-.027.013-.022.009.028-.02.064-.034.082-.063s-.116.073-.044.021a4.841,4.841,0,0,0-.5.255,1.866,1.866,0,0,1-.377.185c-.209.067-.415.14-.619.219s-.4.171-.6.254a1.916,1.916,0,0,1-.432.11c-.176.015-.352.032-.527.062a1.2,1.2,0,0,0-.584.257.853.853,0,0,0-.367.7,1.426,1.426,0,0,0,.228.63c.034.068.11.106.165.159.276.217.577.4.852.621a2.384,2.384,0,0,1,.2.186.255.255,0,0,1,.031.039l-.034-.041c-.016,0-.073-.169-.064-.123a1.225,1.225,0,0,0,.227.394,2.139,2.139,0,0,0,.354.3c.008,0,.077.07.072.064-.144-.164-.075-.063-.166-.217-.038-.078-.041-.147-.038-.037,0,.056,0,.1,0,.155a2.09,2.09,0,0,1-.053.438c-.032.159-.071.315-.1.473-.035.206-.054.415-.078.623,0,.037-.008.075-.011.112-.009.1-.015.2-.019.3,0,.082,0,.108-.005.067-.016.076-.023.154-.035.231,0,.005,0-.021,0-.016-.006.023-.046.186-.042.186.029.005.012-.058.021-.086a.237.237,0,0,0,.036-.074c0-.024-.024.041-.035.062,0,0-.055.1-.054.105.514.267,1.037.516,1.556.774,0,.009-.016.033-.011.026.1-.138.19-.285.291-.424.132-.181.133-.178.275-.349a2.882,2.882,0,0,1,.624-.6,3.085,3.085,0,0,1,.382-.19c.115-.059.127-.043.013-.017l-.025,0a1.2,1.2,0,0,0,.155-.019,2.43,2.43,0,0,0,.24-.058,1.543,1.543,0,0,1,.2-.03h.016a1.909,1.909,0,0,1-.271-.02.881.881,0,0,1-.519-.4,1.212,1.212,0,0,1-.067-.156c-.019-.033.026.072.039.108a1.177,1.177,0,0,0,.645.611,4.385,4.385,0,0,1,.476.234.976.976,0,0,1,.232.164c.119.1.246.192.361.273.034.023.293.192.123.081l-.025-.019-.014-.011a2.441,2.441,0,0,0,.353.248.393.393,0,0,1,.129.081c.025.021.144.141.048.044.209.252-.173-.215.171.2a.3.3,0,0,1-.023-.024c-.1-.095.31.3.095.1a.412.412,0,0,1-.03-.033c.553.449.461.512,1.523-.314.146-.114-.081-.833-.129-1.005-.1-.4-.2-.8-.3-1.2a2.7,2.7,0,0,1-.073-.362c-.005-.026.007-.106,0,0,0,.077-.019.1.007.018,0-.013.009-.026.014-.039.036-.044.059-.145.1-.179.011-.009-.014.025-.021.038a1.214,1.214,0,0,1,.126-.15,3.126,3.126,0,0,0,.316-.4c.091-.119.173-.245.263-.365a2.939,2.939,0,0,0,.235-.3c.056-.1.121-.189.185-.281s.125-.206.188-.309l.034-.065c-.216.322.064-.8-.1-1.143-.131-.286-.656-.264-.926-.253-.218.027-.433.067-.652.089-.133.012-.267.012-.4.012h-.743a2.316,2.316,0,0,1-.25-.006c-.037,0-.075,0-.112-.008-.068-.007-.076,0-.055-.017-.014-.045.087.037.13.054.005,0,0-.016.006-.034a3.953,3.953,0,0,1-.032-.431,3.6,3.6,0,0,0-.021-.475c-.2-.7-.048-.37-1.714.314,0,0,.1.35.142.55-.036.043.053.137.019.192-.007.011-.013-.022-.017-.034a.21.21,0,0,1,0-.111c0-.01.019-.022.013-.031s-.061,0-.083.008c-.152.024-.3.044-.457.064a6.457,6.457,0,0,0-.971.178c-.07.022-.139.049-.209.074a1.873,1.873,0,0,0-.808.558c-.044.055-.08.116-.12.175a1.611,1.611,0,0,0-.187,1.075c.018.091.051.179.077.268.046.087.084.178.138.261a1.5,1.5,0,0,0,.878.6c.075.02.153.031.229.047a7.3,7.3,0,0,0,1.011.048.606.606,0,0,1,.323.045.54.54,0,0,1-.282-.287c-.023-.1-.033-.2-.049-.306a.719.719,0,0,1,.162-.4c.011-.013.04-.021.034-.037s-.03.007-.045.009l-.071.007c-.044.005-.089.013-.133.016s-.182.006-.236.005c-.033,0-.066,0-.1,0-.006,0-.022-.006-.016-.006.025,0,.05.006.076.009.4.215.43.15.583.685a.777.777,0,0,1-.026.274c0,.014-.014.05,0,.043.036-.022.055-.065.086-.095s.067-.055.1-.082a1.7,1.7,0,0,1,.885-.317c.06,0,.319-.01.361.034.016.016-.044-.006-.066-.012a.443.443,0,0,1-.229-.361c-.014-.021.012-.048,0-.068s-.018.023-.025.035c-.025.039-.049.08-.073.12a1.144,1.144,0,0,0-.2.621,1.19,1.19,0,0,0,.033.222c.216.376.259.5.625.662a.644.644,0,0,0,.148.049c.108.018.217.02.326.031a2.016,2.016,0,0,0,.351-.086,1.3,1.3,0,0,0,.631-.663,2.116,2.116,0,0,0,.134-.43,2.981,2.981,0,0,0-.133-1.289c-.093-.291-.161-.588-.225-.886-.022-.159-.082-.31-.1-.47a2.989,2.989,0,0,0-.061-.458,3.273,3.273,0,0,0-.2-.633,3.181,3.181,0,0,0-.241-.484,1.219,1.219,0,0,0-.394-.363.908.908,0,0,1-.093-.05l.013.006c-.078-.049-.153-.1-.23-.15a1.3,1.3,0,0,0-.728-.19,4.028,4.028,0,0,0-.4.1c-.1.067-.2.128-.3.2a3.617,3.617,0,0,0-.854,1.329A9.854,9.854,0,0,0-138,2.212c-.064.376-.112.755-.177,1.131a5,5,0,0,1-.187.7c-.069.22-.154.435-.237.65-.064.168-.127.337-.2.5-.06.124-.1.259-.169.379-.005.009-.01.017-.015.026-.02.041-.039.082-.057.123s-.022.059-.034.089l0,.006c.007-.023.016-.032.005-.02a1.47,1.47,0,0,0-.094.191.3.3,0,0,1,.016-.037c.007-.015.016-.029.024-.044s.005-.009,0-.006l-.057.082-.019.028-.037.054s0-.005,0-.007a.551.551,0,0,0,.07-.082c.013-.024-.038.038-.056.057.176-.178-.3.285-.065.057.012-.011.025-.021.037-.031l.026-.019c-.031.022-.3.237-.113.087.357-.238.595.024,1.164.326.084.045.064.18.1.27.005.036-.021.1.014.107s.015-.069.027-.1c.032-.088.08-.17.12-.254a.87.87,0,1,0-1.577-.731h0a2.638,2.638,0,0,0-.314,1.16c.036.128,0,.313.108.384.744.473.872.562,1.327.284.309-.232-.018.009.156-.117a1.149,1.149,0,0,0,.178-.161.327.327,0,0,1-.029.029c-.02.018-.088.044-.062.051.066.017.09-.174.156-.134-.054.039.016-.011.118-.128.046-.053.079-.115.12-.171-.04.05.013-.016.038-.053a1.27,1.27,0,0,0,.128-.226c.005-.011-.023.051-.018.031.074-.126.127-.261.166-.336.077-.156.145-.316.214-.476q.119-.279.225-.564c.09-.234.182-.469.258-.708a6.889,6.889,0,0,0,.256-.971c.064-.37.113-.742.174-1.113a8.205,8.205,0,0,1,.4-1.431,3.05,3.05,0,0,1,.2-.428c.029-.053.063-.1.092-.155.01-.018.015-.039.027-.056s.061-.046.041-.045a.357.357,0,0,0-.112.049c-.2.031-.329.074-.492-.039.086.059.2.136.3.2l.064.035-.015-.01a.521.521,0,0,1-.16-.161c-.074-.14.066.147.069.158a1.589,1.589,0,0,1,.114.357,2.968,2.968,0,0,1,.037.325c.029.2.082.4.123.6.069.32.141.639.241.95.03.117.065.234.09.352.008.039,0,.085.022.116,0,0,.009,0,.013,0,0,.023-.025.085-.007.07s.038-.046.059-.067a.745.745,0,0,1,.459-.165c.072.012.145.02.216.035a.174.174,0,0,1,.046.02c.245.133.2.172.385.5a.89.89,0,0,1,.023.181.7.7,0,0,1-.105.4c-.014.028.074-.127.049-.08a2.012,2.012,0,0,0,.345-.85c0-.081.012-.162.006-.243a1.345,1.345,0,0,0-.581-1.007c-.078-.043-.152-.092-.233-.129a2.551,2.551,0,0,0-1.238-.143c-.1.015-.2.027-.3.046a3.288,3.288,0,0,0-1.5.7,2.47,2.47,0,0,0-.619.744,1,1,0,0,0,.142,1.125c.1.133.279.177.418.266.072.016.143.037.215.049a3.651,3.651,0,0,0,1.014-.036c.093-.021.187-.036.279-.062a1.441,1.441,0,0,0,.92-.687,2.429,2.429,0,0,0,.112-.352c-.012-.145-.01-.293-.036-.436a.647.647,0,0,0-.074-.182,1.247,1.247,0,0,0-.631-.575,2.333,2.333,0,0,0-.979-.173c-.236,0-.472,0-.707-.021-.091,0-.006.041.037.1a.481.481,0,0,1,.052.131.245.245,0,0,1,0,.1c0,.005-.006-.017-.009-.013a.351.351,0,0,0-.028.052l-.016.019c-.126.113-.033-.013.064-.029a3.517,3.517,0,0,1,.792-.156,2.773,2.773,0,0,0,1.484-.485,1.6,1.6,0,0,0,.419-.538,1.769,1.769,0,0,0,.1-1.16,3.374,3.374,0,0,0-.124-.479c0-.007.007.021,0,.023-.558.141-1.111.308-1.679.4-.04.007-.02-.079-.031-.119s0-.094-.009-.14c0-.015,0,.03,0,.045,0,.1,0,.2,0,.3a3.322,3.322,0,0,0,.152,1.012c.032.074.06.151.1.223a1.559,1.559,0,0,0,.923.8c.075.018.149.039.225.054a4.8,4.8,0,0,0,.8.039h.606c.189,0,.379,0,.567-.021s.389-.044.581-.083c.038-.009,0,0,.067,0,.175,0-.4-.079-.467-.241-.323-.811.152-1.443-.1-1.107a2.031,2.031,0,0,0-.131.213s.01-.015.005-.006l.014-.019a1.963,1.963,0,0,0-.138.223c0,.005.008-.009.011-.014-.074.108-.152.214-.217.328-.02.031-.026.04.022-.022.007-.009-.015.018-.023.027-.037.043-.09.1-.12.139s-.035.046-.052.069c-.1.13-.186.265-.284.394a1.47,1.47,0,0,1-.162.212,2.961,2.961,0,0,0-.255.3,2.761,2.761,0,0,0-.336.641,1.666,1.666,0,0,0-.1.705,4.089,4.089,0,0,0,.116.625c.1.42.2.842.311,1.26l.054.195.033.12c.058.207-.06-.2.05-.273,1.114-.729.948-.736,1.494-.282-.025-.03-.051-.063-.079-.09s-.118-.12-.093-.086c.232.312.135.122.072.064-.02-.022-.074-.09-.059-.065a.715.715,0,0,0,.08.1c.012.014-.021-.03-.031-.045-.032-.044-.124-.177-.1-.127a2.437,2.437,0,0,0-.312-.307,1.968,1.968,0,0,0-.379-.248s.01.005.012.01-.007,0-.01-.006L-133.7,5c-.018-.013.066.06.05.045l-.061-.056a1.237,1.237,0,0,0-.182-.132.21.21,0,0,0,.045.031c.015.007-.027-.019-.041-.029l-.055-.038-.009-.005c-.077-.055-.119-.083-.2-.151a2.779,2.779,0,0,0-.565-.392,4.769,4.769,0,0,0-.514-.253l-.045-.022c-.006,0-.022-.012-.018-.008s.044.03.062.049a.855.855,0,0,1,.191.263.514.514,0,0,1,.021.063.945.945,0,0,0-.077-.19.921.921,0,0,0-.913-.472,3.187,3.187,0,0,0-.484.081.928.928,0,0,0-.1.026c-.017.007.036-.006.054-.01s-.064.006-.048.009.094,0,.072,0-.164.013-.167.014a1.65,1.65,0,0,0-.471.153,4.123,4.123,0,0,0-.68.364,4.716,4.716,0,0,0-.949.9,9.43,9.43,0,0,0-.752,1.047c1.648.851,1.281,1.28,1.629.635a1.824,1.824,0,0,0,.111-.355c.037-.147.058-.3.081-.445.017-.166.021-.332.037-.5s.036-.308.052-.462c.038-.185.086-.368.12-.554a3.591,3.591,0,0,0,.076-.74,2.145,2.145,0,0,0-.106-.784,1.754,1.754,0,0,0-.093-.179,1.555,1.555,0,0,0-.339-.35c-.023-.018-.229-.186-.1-.061.1.138-.017-.031.1.171.01.017-.005-.045-.023-.053s.026.068.019.051a1.2,1.2,0,0,0-.123-.26,2.948,2.948,0,0,0-.578-.6c-.258-.2-.527-.387-.8-.574a.844.844,0,0,1-.066,1.184.8.8,0,0,1-.274.116c-.019.005.1-.021.059-.011.164-.029.331-.034.5-.057a3.75,3.75,0,0,0,.835-.222c.189-.079.373-.172.567-.239s.4-.147.606-.214a3.7,3.7,0,0,0,.648-.315,2.532,2.532,0,0,1,.271-.142,1.8,1.8,0,0,0,.613-.408c.046-.059.095-.117.138-.178a1.6,1.6,0,0,0,.194-.492,5.064,5.064,0,0,1,.192-.556c-.3.411-.331.508-1.363.11-.193-.075-.144-.388-.222-.58-.03-.074.032.161,0,.1a.87.87,0,1,0,1.738,0Z" fill="#fff" stroke="rgba(0,0,0,0)" stroke-width="1.4"/><path d="M-145.224,38.022l-.278-.24.078-8.224c.044-4.523.1-8.507.129-8.852l.051-.628-.751.006a2.691,2.691,0,0,1-.822-.068,46.53,46.53,0,0,1-.868-4.644c-.053-.359-.115-.774-.137-.921-.036-.231-.094-.282-.41-.364-.2-.053-.643-.171-.978-.263s-.981-.235-1.436-.317c-1.7-.307-3.533-.975-3.621-1.32a4.928,4.928,0,0,1,.3-1.218c.564-1.7.988-3.077,1.2-3.888a4.048,4.048,0,0,1,.312-.9c.1-.12.068-.18-.231-.441-.19-.166-.523-.423-.738-.57-.468-.321-1.769-1.4-2.437-2.019-.263-.244-.577-.513-.7-.6l-.218-.153.228-.191c1.9-1.588,2.8-2.356,3.208-2.715l.82-.727c.21-.187.313-.344.284-.435s-.284-.75-.576-1.492A22.3,22.3,0,0,1-154.2-7.3c.013-.011.24-.141.5-.288a15.086,15.086,0,0,1,4.45-.938l.925-.051.137-1.1c.075-.606.179-1.572.231-2.146.186-2.071.159-1.952.509-2.275.291-.268.353-.289.71-.243a5.739,5.739,0,0,1,.653.125c.144.041.436.1.649.134a17.975,17.975,0,0,1,3.653,1.451l.733.359.137-.208c.173-.263.544-.712,1.521-1.842,1.692-1.956,2.566-2.72,3.112-2.72.4,0,.632.2,1.075.962a3.388,3.388,0,0,0,.476.672,20.387,20.387,0,0,1,1.821,2.092c.069.1.232.311.362.461a1.934,1.934,0,0,1,.27.379c.022.068.307-.04.815-.309.429-.227.9-.474,1.041-.548s.48-.274.747-.444,1-.562,1.626-.87l1.139-.56.376.122a1.3,1.3,0,0,1,.483.255c.409.51.828,2.628.94,4.746a8.865,8.865,0,0,0,.09,1.013,4.26,4.26,0,0,0,2.154.328,18.219,18.219,0,0,1,1.984.18c.669.1,1.346.176,1.5.176a2.057,2.057,0,0,1,.564.1c.26.091.273.115.219.413A34.263,34.263,0,0,1-119.841-4.6a3.333,3.333,0,0,0-.215.609c-.081.287-.243.793-.36,1.125a2.2,2.2,0,0,0-.169.716,18.97,18.97,0,0,0,2.448,1.692,16.177,16.177,0,0,1,2.358,1.824l.461.436-.732.984a10.929,10.929,0,0,1-2.217,2.236,15.512,15.512,0,0,0-1.484,1.341c0,.049.158.814.351,1.7a27.213,27.213,0,0,1,.621,4.173l.028.562-.522.155a4.717,4.717,0,0,0-.67.241,26.312,26.312,0,0,1-2.768.624,2.986,2.986,0,0,0-1.475.5,20.985,20.985,0,0,0-.221,3.733,13.6,13.6,0,0,1-.134,2.023c-.108.2-.349.213-.825.042-.553-.2-.553-.2-.526.5.023.6-.107,7.078-.163,8.072-.014.263-.054,1.007-.088,1.654s-.1,1.39-.137,1.654-.1.753-.124,1.088c-.275,3.481-.451,4.747-.7,4.991a2.555,2.555,0,0,1-1.539.107c-.488-.077-.825-.347-1.364-1.094-.173-.239-.517-.67-.764-.957a8.758,8.758,0,0,1-.615-.787,16.2,16.2,0,0,0-1.306-1.687,4.28,4.28,0,0,1-.535-.746,9.591,9.591,0,0,0-1.543-1.958c-.191-.161-.507-.444-.7-.628l-.354-.334-.908.98c-1.838,1.984-3.669,3.9-3.729,3.9-.034,0-.723.651-1.532,1.446-1.638,1.611-1.982,1.869-2.561,1.917a.714.714,0,0,1-.675-.207Zm16.719-2.96c.032-.467.093-1.2.137-1.632a89.25,89.25,0,0,0,.525-9.312c.044-2.25.081-4.272.083-4.494l0-.4-.979-.483a10.787,10.787,0,0,0-1.629-.651l-.65-.167-.825.88a45.392,45.392,0,0,1-3.452,3.378,4.105,4.105,0,0,1-.943.55c-.521.177-1.054.106-1.2-.159a1.383,1.383,0,0,0-.249-.319,10.234,10.234,0,0,1-1.294-1.639,1.823,1.823,0,0,0-.313-.452,7.886,7.886,0,0,1-.668-.93,7.122,7.122,0,0,0-.569-.812c-.023,0-.48.172-1.014.382s-1.151.432-1.372.494l-.4.112-.09,1.051c-.049.578-.1,2.127-.106,3.443s-.035,2.42-.056,2.455c-.045.072-.061,8.949-.016,8.993a32.893,32.893,0,0,0,3.2-3.1c2.422-2.655,3.814-4.02,4.247-4.162.572-.189.756-.085,1.889,1.075.574.588,1.144,1.143,1.266,1.234a11.15,11.15,0,0,1,1.647,2.119,3.827,3.827,0,0,0,.416.628,18.43,18.43,0,0,1,1.325,1.639,6.848,6.848,0,0,0,.97,1.131,3.392,3.392,0,0,0,.112-.848Zm-6.914-14.946c.36-.383.953-1.009,1.316-1.392s.8-.853.968-1.045.466-.524.66-.74l.353-.392h.855a5.446,5.446,0,0,1,2.761.753,5.709,5.709,0,0,0,.771.335,7.5,7.5,0,0,1,.868.348c.431.191.813.348.847.348a12.916,12.916,0,0,0,.122-1.806c.058-1.777.1-2.49.192-3.218.044-.347.067-.373.411-.462l1.018-.264c.359-.094.829-.2,1.044-.247s.761-.16,1.212-.26a7.762,7.762,0,0,1,1.122-.182h.3l-.064-.544c-.036-.3-.094-.857-.13-1.24a8.331,8.331,0,0,0-.172-1.088c-.229-.84-.469-1.866-.657-2.81-.021-.111.31-.438,1.158-1.143a19.052,19.052,0,0,0,2.686-2.682,1.967,1.967,0,0,0,.287-.4A21.666,21.666,0,0,0-120.142.089c-1.635-1.083-2.25-1.636-2.239-2.015a22.26,22.26,0,0,1,1.319-3.93c.242-.594.431-1.088.419-1.1a25.915,25.915,0,0,0-2.937-.308c-1.783-.1-2.185-.175-2.543-.448s-.5-.7-.506-1.514a8.752,8.752,0,0,0-.175-1.426c-.1-.455-.248-1.248-.341-1.763a9.16,9.16,0,0,0-.219-1.018,5.636,5.636,0,0,0-1.873.9,7.326,7.326,0,0,1-1.474.841,6.978,6.978,0,0,0-.8.453,2.254,2.254,0,0,1-.651.282,1.022,1.022,0,0,1-.787-.038,4.7,4.7,0,0,1-1.491-1.38c-.082-.128-.5-.645-.934-1.148s-.9-1.085-1.04-1.292l-.257-.377-1.372,1.422a26.6,26.6,0,0,0-1.875,2.13,5.125,5.125,0,0,1-.678.82,1.529,1.529,0,0,1-.653.1,3.394,3.394,0,0,1-1.523-.53c-1.206-.6-1.961-.942-2.7-1.232-.287-.113-.618-.255-.736-.315a.619.619,0,0,0-.235-.089c-.012.012-.044.451-.07.976a40.668,40.668,0,0,1-.56,4.725c-.045.071-.423.105-1.221.108a23.8,23.8,0,0,0-4.077.467,1.8,1.8,0,0,0,.2.591,49.94,49.94,0,0,1,1.927,4.68c.033.291,0,.336-.795,1-.456.383-1.151.945-1.545,1.249A7.5,7.5,0,0,0-154.3,2.451a6.731,6.731,0,0,0,1.186.971c2.748,1.976,2.556,1.811,2.556,2.2a1.439,1.439,0,0,1-.078.5,9.921,9.921,0,0,0-.311.978c-.128.455-.344,1.14-.48,1.523s-.313.909-.393,1.17a7.531,7.531,0,0,1-.4.988,2.509,2.509,0,0,0-.232.539c.027.025,2.427.63,3.953,1a15.861,15.861,0,0,1,2.072.621,6.047,6.047,0,0,1,.18.777c.079.407.256,1.288.394,1.958a19.071,19.071,0,0,1,.434,2.743c0,.324.077.325.837.013a18.6,18.6,0,0,1,2.321-.8,5.628,5.628,0,0,0,1.15-.437,2.084,2.084,0,0,1,1.349-.3,1.492,1.492,0,0,1,.711.245,18.766,18.766,0,0,1,1.839,2.669,6.857,6.857,0,0,0,.561.852c.353.438.28.47,1.238-.547Zm-.694-4.745c-.311-.037-.8-.087-1.088-.113a3.854,3.854,0,0,1-.763-.139c-.132-.05-.485-.148-.783-.217a7.012,7.012,0,0,1-.977-.312,7.735,7.735,0,0,1-1.436-.871,6.014,6.014,0,0,0-.609-.392c-.311-.185-.762-.464-1-.619a11.553,11.553,0,0,1-3.524-3.863,8.282,8.282,0,0,0-.461-.776,9.263,9.263,0,0,1-1.465-4.942,15.209,15.209,0,0,1,1.332-5.335C-146.2-3.5-145.64-4.47-145.291-5a8.527,8.527,0,0,1,2.628-2.4c.42-.227.9-.5,1.068-.6a15.682,15.682,0,0,1,5.13-1.383,13.456,13.456,0,0,1,3.26.31,16.415,16.415,0,0,1,4.1,1.784c.362.233.812.514,1,.625A13.077,13.077,0,0,1-125.876-4.3a19.039,19.039,0,0,1,1.671,3.264,14.266,14.266,0,0,1,.357,4.605c-.047.243-.14.86-.207,1.371a17.412,17.412,0,0,1-2.367,6.047c-.177.232-.632.742-1.011,1.133s-.744.789-.81.884a11.3,11.3,0,0,1-3.3,1.774,13.476,13.476,0,0,1-4.569.589Zm1.61-1.64a9.176,9.176,0,0,0,1.773-.4,2.506,2.506,0,0,1,.5-.136,6.136,6.136,0,0,0,1.342-.621,9.31,9.31,0,0,0,1.764-1.28c.261-.236.529-.463.6-.5a10.5,10.5,0,0,0,1.694-2.73c.122-.263.359-.753.527-1.088a9.543,9.543,0,0,0,.733-3.608,10.28,10.28,0,0,0-.812-5.487,8.237,8.237,0,0,0-4.163-4.41,9.32,9.32,0,0,0-4.461-1.293,7.554,7.554,0,0,0-2.172.178,8.829,8.829,0,0,0-3.018.964,5.014,5.014,0,0,1-.848.384c-.063,0-.115.036-.115.077s-.089.1-.2.127A8.435,8.435,0,0,0-143.4-4.52a9.653,9.653,0,0,0-1.608,2.443,11.206,11.206,0,0,0-1.328,7.729,7.618,7.618,0,0,0,1.479,3.193,10.009,10.009,0,0,0,2.613,2.863,16.316,16.316,0,0,0,3.133,1.666,4.832,4.832,0,0,1,.7.26,1.8,1.8,0,0,0,.52.124,1.928,1.928,0,0,1,.476.1,19.526,19.526,0,0,0,2.92-.127Zm-5.526-5.126c-.262-.131-.312-.207-.36-.544a23.581,23.581,0,0,1,.181-3.568c.047-.215.087-.431.089-.479a6.3,6.3,0,0,0-.746-.914A16.779,16.779,0,0,1-142.1,1.547l-.488-.728.185-.15a17.311,17.311,0,0,1,3.237-.952,3.469,3.469,0,0,0,.87-.248c.477-.719,2.049-2.9,2.092-2.9a4.116,4.116,0,0,1,1.067.7c.041.071.382.7.759,1.392l.685,1.262,1.468.044c1.441.043,1.474.048,1.838.294a1.032,1.032,0,0,1,.472.593c.093.308.08.387-.12.793a13.766,13.766,0,0,1-1.014,1.492c-.721.948-.788,1.068-.749,1.349.023.169.1.894.173,1.61.161,1.613.081,2.236-.306,2.4-.29.12-.709-.071-2.493-1.141a11.908,11.908,0,0,0-1.235-.686,9.034,9.034,0,0,0-1.092.7A9.78,9.78,0,0,1-138.6,8.414c-.965.393-1.012.4-1.427.192Zm2.018-2.046c.158-.109.464-.329.68-.487a5.279,5.279,0,0,1,1.676-.8,2.585,2.585,0,0,1,.749.376A8.787,8.787,0,0,0-133,6.719a26.186,26.186,0,0,0-.383-2.847c-.031-.167.026-.31.206-.522.278-.326,1.134-1.475,1.36-1.825l.147-.228-1.18-.04-1.18-.04-.308-.3a8.309,8.309,0,0,1-.89-1.32,7.125,7.125,0,0,0-.645-1.023,12.558,12.558,0,0,0-.98,1.216,4.985,4.985,0,0,1-1.112,1.254c-.107.02-.718.1-1.358.177a9.532,9.532,0,0,0-1.284.208c-.09.05.154.368.934,1.22l1.055,1.153-.056.671c-.031.369-.092.926-.135,1.237s-.1.752-.126.98l-.048.414.342-.174a6.8,6.8,0,0,0,.629-.373Z"/></g></svg>