<svg xmlns="http://www.w3.org/2000/svg" width="133.804" height="32.052" viewBox="0 0 133.804 32.052"><path d="M89.422,148.4c-3.153.237-6.315.157-9.471.268-4,.332-8.109.161-12.152.2-3.484.032-7.067-.207-10.455.608-2.911.692-5.9.96-8.852,1.407a25.5,25.5,0,0,0-10.175,4,38.571,38.571,0,0,0-4.355,3.225,9.2,9.2,0,0,0-2.341,4.064,12.561,12.561,0,0,0-.556,5.744,8.44,8.44,0,0,0,1.757,3.2c.98,1.547,2.711,2.359,4.247,3.243,2.592,1.485,5.581,1.9,8.452,2.545a30.147,30.147,0,0,0,7.135.786c5.03.006,10.062.055,15.091-.037,4.711-.148,9.417-.422,14.131-.49,4.79-.179,9.589-.329,14.381-.192,3.723.175,7.35,1.2,11.085,1.227a47.984,47.984,0,0,1,7.035.421,70.385,70.385,0,0,0,8.172.379c3.466-.023,6.935.064,10.4-.048a41.038,41.038,0,0,0,6.357-.865,35.638,35.638,0,0,0,6-1.228c2.07-.523,4.189-.8,6.288-1.179,1.379-.115,2.526-.972,3.876-1.228,1.4-.7,2.973-1.046,4.229-2.016a13.03,13.03,0,0,0,2.733-3.251,7.337,7.337,0,0,0,.788-2.149c-.008-.983.362-1.55-.076-2.963-.9-2.048-3.085-3.546-4.726-4.612a12.9,12.9,0,0,0-1.278-.689c-2.757-1.376-5.58-2.658-8.44-3.749-5.232-2.1-10.55-4.261-16.192-4.946-5.934-.7-11.993-.626-18.005-.9-4.384-.159-8.722-.548-13.108-.587-3.985-.2-7.982-.3-11.971-.2Zm1.324,1.5c4.013-.03,8.022.113,12.031.277,4.737.089,9.411.544,14.145.635,5.928.245,11.906.138,17.768,1.169,6.045,1.255,11.705,3.8,17.4,6.1,1.734.781,3.457,1.643,5.147,2.474,1.3.693,4.059,2.46,4.711,4.423a8.918,8.918,0,0,1-1.282,4.084,7.482,7.482,0,0,1-2.661,2.622c-.991.549-2.12.814-3.125,1.348-1.365.247-2.528,1.156-3.938,1.195-1.375.236-2.746.485-4.1.722-2.217.38-4.328,1.243-6.582,1.438a61.278,61.278,0,0,1-7.12,1.009c-3.055.159-6.119.028-9.178.072a74.326,74.326,0,0,1-8.849-.329c-1.893-.148-3.676-.468-5.515-.444a42.936,42.936,0,0,1-8.648-.748,49.132,49.132,0,0,0-9.052-.554c-5.095,0-10.183.28-15.276.372-5.327.249-10.657.475-15.992.4-3.825-.056-7.664.155-11.479-.187-2.786-.37-5.524-1.05-8.258-1.684a19.152,19.152,0,0,1-6.191-3.284c-.529-.6-1-1.258-1.465-1.9a4.5,4.5,0,0,1-.742-2.878,13.27,13.27,0,0,1,1.114-5.058,8.794,8.794,0,0,1,2.972-3.189,27.272,27.272,0,0,1,7.657-4.384c3.274-1.256,6.8-1.471,10.234-1.988,2.9-.536,5.794-1.306,8.773-1.206,4.891-.027,9.785.076,14.674-.064,3.69-.327,7.4-.1,11.093-.38.578-.033,1.156-.044,1.734-.066Z" transform="translate(-30.236 -147.662)" stroke="rgba(0,0,0,0)" stroke-width="1.4"/></svg>